<svg xmlns="http://www.w3.org/2000/svg" width="400" height="400"><path d="M214.9.287c-.715.09-1.3.332-1.3.538 0 .206-.54.375-1.2.375-.66 0-1.2.18-1.2.4 0 .22-.36.4-.8.4-.44 0-.8.18-.8.4 0 .22-.27.4-.6.4-.33 0-.6.18-.6.4 0 .22-.36.4-.8.4-.44 0-.8.18-.8.4 0 .22-.288.4-.64.4-.351 0-1.143.54-1.76 1.2-.617.66-1.297 1.2-1.512 1.2-.779 0-6.488 6.166-6.488 7.007 0 .326-.18.593-.4.593-.22 0-.4.36-.4.8 0 .44-.18.8-.4.8-.22 0-.4.36-.4.8 0 .44-.18.8-.4.8-.22 0-.4.36-.4.8 0 .44-.18.8-.4.8-.22 0-.4.504-.4 1.12 0 .616-.166 1.291-.37 1.5-.508.522-1.23 6.043-1.23 9.409V34h-68.2c-45.2 0-68.2.135-68.2.4 0 .22-.54.4-1.2.4-.66 0-1.2.18-1.2.4 0 .22-.36.4-.8.4-.44 0-.8.18-.8.4 0 .22-.249.4-.554.4-.926 0-5.605 4.86-6.931 7.2-2.162 3.814-2.115 2.234-2.115 71.2 0 68.77-.043 67.28 2.074 71.268 1.469 2.769 5.767 7.13 7.026 7.132.275 0 .5.18.5.4 0 .22.36.4.8.4.44 0 .8.18.8.4 0 .22.54.4 1.2.4.66 0 1.2.18 1.2.4 0 .251 2.467.4 6.6.4h6.6V209c0 8.667.141 13.4.4 13.4.22 0 .4.36.4.8 0 .44.18.8.4.8.22 0 .4.193.4.429 0 .637 1.053 1.571 1.771 1.571.346 0 .629.18.629.4 0 .22.36.4.8.4.44 0 .8.18.8.4 0 .231 1.267.4 3 .4s3-.169 3-.4c0-.22.32-.4.712-.4.391 0 .971-.36 1.288-.8.317-.44.763-.8.99-.8.228 0 7.072-6.66 15.21-14.8l14.796-14.8h79.678c52.688 0 79.763-.135 79.926-.4.136-.22.777-.4 1.424-.4.647 0 1.176-.18 1.176-.4 0-.22.236-.4.525-.4.288 0 .911-.36 1.383-.8.472-.44 1.054-.8 1.292-.8.925 0 4.8-3.879 4.8-4.805 0-.217.18-.395.4-.395.22 0 .4-.36.4-.8 0-.44.18-.8.4-.8.22 0 .4-.36.4-.8 0-.44.18-.8.4-.8.22 0 .4-.54.4-1.2 0-.66.18-1.2.4-1.2.259 0 .4-4.933.4-14v-14h44.8c29.6 0 44.8-.136 44.8-.4 0-.22.54-.4 1.2-.4.66 0 1.2-.18 1.2-.4 0-.22.54-.4 1.2-.4.66 0 1.2-.18 1.2-.4 0-.22.36-.4.8-.4.44 0 .8-.18.8-.4 0-.22.36-.4.8-.4.44 0 .8-.18.8-.4 0-.22.36-.4.8-.4.44 0 .8-.18.8-.4 0-.22.288-.4.64-.4.351 0 1.143-.54 1.76-1.2.617-.66 1.233-1.2 1.371-1.2.515 0 3.829-3.602 3.829-4.163 0-.32.349-.694.775-.829.426-.135 1.01-.777 1.298-1.427.287-.65.658-1.181.825-1.181.166 0 .302-.36.302-.8 0-.44.18-.8.4-.8.22 0 .4-.36.4-.8 0-.44.18-.8.4-.8.22 0 .4-.36.4-.8 0-.44.18-.8.4-.8.22 0 .4-.525.4-1.167 0-.641.225-1.241.5-1.333.397-.132.5-11.469.5-54.9s-.103-54.768-.5-54.9c-.275-.092-.5-.692-.5-1.333 0-.642-.18-1.167-.4-1.167-.22 0-.4-.36-.4-.8 0-.44-.18-.8-.4-.8-.22 0-.4-.36-.4-.8 0-.44-.18-.8-.4-.8-.22 0-.4-.36-.4-.8 0-.44-.18-.8-.4-.8-.22 0-.4-.288-.4-.64 0-.351-.54-1.143-1.2-1.76-.66-.617-1.2-1.233-1.2-1.371 0-.326-3.503-3.829-3.829-3.829-.138 0-.754-.54-1.371-1.2-.617-.66-1.409-1.2-1.76-1.2-.352 0-.64-.18-.64-.4 0-.22-.36-.4-.8-.4-.44 0-.8-.18-.8-.4 0-.22-.36-.4-.8-.4-.44 0-.8-.18-.8-.4 0-.22-.36-.4-.8-.4-.44 0-.8-.18-.8-.4 0-.22-.525-.4-1.167-.4-.641 0-1.241-.225-1.333-.5-.159-.478-159.695-.881-163.4-.413M368.4 16.4c0 .222 1.067.4 2.4.4s2.4.178 2.4.4c0 .22.36.4.8.4.44 0 .8.136.8.302 0 .167.576.557 1.279.869 1.645.728 4.422 3.505 5.15 5.15.312.703.702 1.279.869 1.279.166 0 .302.36.302.8 0 .44.18.8.4.8.222 0 .4 1.067.4 2.4s.178 2.4.4 2.4c.264 0 .4 15.267.4 45s-.136 45-.4 45c-.22 0-.4.883-.4 1.962 0 1.813-1.279 5.207-2.1 5.571-.165.074-.3.393-.3.711 0 .811-3.186 3.906-4.721 4.585-.703.312-1.279.702-1.279.869 0 .166-.36.302-.8.302-.44 0-.8.18-.8.4 0 .222-1.067.4-2.4.4s-2.4.178-2.4.4c0 .265-24.4.4-72.4.4-48 0-72.4-.135-72.4-.4 0-.22-.99-.4-2.2-.4-1.21 0-2.2-.18-2.2-.4 0-.22-.36-.4-.8-.4-.44 0-.8-.18-.8-.4 0-.22-.36-.4-.8-.4-.44 0-.8-.18-.8-.4 0-.22-.256-.4-.568-.4-.74 0-4.232-3.492-4.232-4.232 0-.312-.135-.569-.3-.571-.351-.004-1.3-1.934-1.3-2.643 0-.268-.225-.562-.5-.654-.396-.132-.5-10.389-.5-49.5 0-39.111.104-49.368.5-49.5.275-.092.5-.512.5-.933 0-.422.136-.767.302-.767.167 0 .542-.542.835-1.203.649-1.467 3.909-4.797 4.695-4.797.312 0 .568-.18.568-.4 0-.22.36-.4.8-.4.44 0 .8-.18.8-.4 0-.22.36-.4.8-.4.44 0 .8-.18.8-.4 0-.22.99-.4 2.2-.4 1.21 0 2.2-.18 2.2-.4 0-.265 24.4-.4 72.4-.4 48 0 72.4.135 72.4.4M267 37.6c-.136.22-.524.4-.863.4-.934 0-4.009 3.465-4.366 4.918-.173.705-.314 15.862-.314 33.682s.141 32.977.314 33.682c.357 1.453 3.432 4.918 4.366 4.918.339 0 .727.18.863.4.136.22 1.486.4 3 .4s2.864-.18 3-.4c.136-.22.597-.4 1.024-.4.427 0 .776-.18.776-.4 0-.22.27-.4.6-.4.33 0 .6-.18.6-.4 0-.22.36-.4.8-.4.44 0 .8-.18.8-.4 0-.22.32-.4.712-.4.391 0 .971-.36 1.288-.8.317-.44.897-.8 1.288-.8.392 0 .712-.18.712-.4 0-.22.36-.4.8-.4.44 0 .8-.18.8-.4 0-.22.27-.4.6-.4.33 0 .6-.16.6-.357 0-.196.488-.479 1.085-.629.596-.149 1.818-.767 2.714-1.371.896-.605 2.208-1.356 2.915-1.669.707-.313 1.286-.705 1.286-.872 0-.166.236-.302.525-.302.288 0 .911-.36 1.383-.8.472-.44 1.136-.8 1.475-.8.339 0 .617-.18.617-.4 0-.22.36-.4.8-.4.44 0 .8-.18.8-.4 0-.22.236-.4.525-.4.288 0 .911-.36 1.383-.8.472-.44 1.136-.8 1.475-.8.339 0 .617-.18.617-.4 0-.22.278-.4.617-.4.339 0 1.003-.36 1.475-.8.472-.44 1.095-.8 1.383-.8.289 0 .525-.136.525-.302 0-.167.585-.558 1.3-.87.715-.312 1.591-.896 1.947-1.298.356-.401.941-.73 1.3-.73.359 0 .653-.18.653-.4 0-.22.36-.4.8-.4.44 0 .8-.18.8-.4 0-.22.36-.4.8-.4.44 0 .8-.162.8-.361 0-.198.495-.55 1.1-.78 1.202-.459 4.979-2.519 5.3-2.891.11-.128.785-.487 1.5-.798.715-.311 1.3-.701 1.3-.868 0-.166.27-.302.6-.302.33 0 .6-.18.6-.4 0-.22.27-.4.6-.4.33 0 .6-.18.6-.4 0-.22.32-.4.712-.4.391 0 .971-.36 1.288-.8.317-.44.897-.8 1.288-.8a.685.685 0 00.712-.712c0-.391.36-.971.8-1.288.463-.333.8-1.035.8-1.665 0-.598.18-1.199.4-1.335.22-.136.4-.856.4-1.6 0-.744-.18-1.464-.4-1.6-.22-.136-.4-.737-.4-1.335 0-.63-.337-1.332-.8-1.665-.44-.317-.8-.897-.8-1.288a.685.685 0 00-.712-.712c-.391 0-.971-.36-1.288-.8-.317-.44-.897-.8-1.288-.8-.392 0-.712-.18-.712-.4 0-.22-.27-.4-.6-.4-.33 0-.6-.18-.6-.4 0-.22-.27-.4-.6-.4-.33 0-.6-.18-.6-.4 0-.22-.27-.4-.6-.4-.33 0-.6-.18-.6-.4 0-.22-.345-.4-.767-.4-.421 0-.826-.135-.9-.3-.167-.376-2.297-1.675-3.233-1.971-.385-.122-.7-.381-.7-.576 0-.194-.36-.353-.8-.353-.44 0-.8-.143-.8-.319 0-.175-1.395-1.021-3.1-1.878-1.705-.858-3.19-1.674-3.3-1.814-.11-.139-.785-.508-1.5-.819-.715-.311-1.3-.701-1.3-.868 0-.166-.236-.302-.525-.302-.288 0-.911-.36-1.383-.8-.472-.44-1.136-.8-1.475-.8-.339 0-.617-.18-.617-.4 0-.22-.278-.4-.617-.4-.339 0-1.003-.36-1.475-.8-.472-.44-1.095-.8-1.383-.8-.289 0-.525-.18-.525-.4 0-.22-.36-.4-.8-.4-.44 0-.8-.18-.8-.4 0-.22-.32-.4-.712-.4-.391 0-.971-.36-1.288-.8-.317-.44-.897-.8-1.288-.8-.392 0-.712-.146-.712-.325 0-.179-.63-.573-1.4-.875-.77-.302-1.4-.667-1.4-.812 0-.144-.855-.693-1.9-1.22-1.045-.526-1.99-1.063-2.1-1.192-.11-.129-1.595-.928-3.3-1.776-1.705-.848-3.1-1.69-3.1-1.871 0-.181-.36-.329-.8-.329-.44 0-.8-.18-.8-.4 0-.22-.36-.4-.8-.4-.44 0-.8-.18-.8-.4 0-.22-.27-.4-.6-.4-.33 0-.6-.18-.6-.4 0-.22-.36-.4-.8-.4-.44 0-.8-.18-.8-.4 0-.231-1.259-.4-2.976-.4-1.637 0-3.088.18-3.224.4m-75.4 49.71c0 35.526.209 43.046 1.223 44.07.207.209.377.884.377 1.5s.18 1.12.4 1.12c.22 0 .4.36.4.8 0 .44.18.8.4.8.22 0 .4.36.4.8 0 .44.18.8.4.8.22 0 .4.36.4.8 0 .44.18.8.4.8.22 0 .4.254.4.564 0 .311.54 1.019 1.2 1.575.66.555 1.2 1.187 1.2 1.404 0 .521 3.548 4.057 4.071 4.057.224 0 .912.54 1.529 1.2.617.66 1.409 1.2 1.76 1.2.352 0 .64.18.64.4 0 .22.36.4.8.4.44 0 .8.18.8.4 0 .22.27.4.6.4.33 0 .6.18.6.4 0 .22.36.4.8.4.44 0 .8.18.8.4 0 .22.54.4 1.2.4.66 0 1.2.18 1.2.4 0 .22.54.4 1.2.4.66 0 1.2.18 1.2.4 0 .263 9.133.4 26.6.4h26.6v11.829c0 12.394-.079 12.971-1.771 12.971-.346 0-.629.18-.629.4 0 .265-27.135.4-80.605.4-63.741 0-80.793.105-81.5.5-1.007.562-8.239 7.471-14.76 14.1l-4.329 4.4-.003-6.3c-.002-3.931-.153-6.3-.403-6.3-.22 0-.4-.54-.4-1.2 0-.66-.18-1.2-.4-1.2-.22 0-.4-.27-.4-.6 0-.33-.18-.6-.4-.6-.22 0-.4-.27-.4-.6 0-.33-.32-.6-.712-.6-.391 0-.971-.36-1.288-.8-.549-.762-1.035-.8-10.288-.8-6.208 0-9.712-.144-9.712-.4 0-.22-.283-.4-.629-.4-2.092 0-1.971 3.918-1.971-63.6s-.121-63.6 1.971-63.6c.346 0 .629-.18.629-.4 0-.265 22-.4 65.2-.4h65.2v36.91m87.833-26.11c.312 0 .567.18.567.4 0 .22.36.4.8.4.44 0 .8.18.8.4 0 .22.278.4.617.4.339 0 1.003.36 1.475.8.472.44 1.095.8 1.383.8.289 0 .525.18.525.4 0 .22.36.4.8.4.44 0 .8.18.8.4 0 .22.32.4.712.4.391 0 .971.36 1.288.8.317.44.897.8 1.288.8.392 0 .712.136.712.302 0 .167.585.562 1.3.878.715.317 1.649.9 2.075 1.298.427.397 1.012.722 1.3.722.289 0 .525.18.525.4 0 .22.36.4.8.4.44 0 .801.135.803.3.002.165.407.493.9.729 2.544 1.218 5.312 2.775 5.43 3.055.074.174.479.316.9.316 1.153 0 .922.639-.433 1.2-.66.273-1.2.655-1.2.849 0 .193-.36.351-.8.351-.44 0-.8.18-.8.4 0 .22-.278.4-.617.4-.339 0-1.003.36-1.475.8-.472.44-1.095.8-1.383.8-.289 0-.525.18-.525.4 0 .22-.36.4-.8.4-.44 0-.8.18-.8.4 0 .22-.236.4-.525.4-.288 0-.873.325-1.3.722-.426.398-1.36.981-2.075 1.298-.715.316-1.3.711-1.3.878 0 .166-.32.302-.712.302-.391 0-.971.36-1.288.8-.317.44-.897.8-1.288.8-.392 0-.712.18-.712.4 0 .22-.36.4-.8.4-.44 0-.8.18-.8.4 0 .22-.32.4-.712.4-.391 0-.971.36-1.288.8-.317.44-.897.8-1.288.8-.392 0-.712.18-.712.4 0 .22-.36.4-.8.4-.44 0-.8.159-.8.353 0 .195-.36.448-.8.563-.791.207-.8.02-.768-15.853.017-8.835.122-15.838.233-15.563.111.275.457.5.768.5M85.6 81.932c0 .183-.495.588-1.1.9-1.491.77-2.1 1.39-2.1 2.139 0 .346-.18.629-.4.629-.22 0-.4.349-.4.776 0 .427-.18.888-.4 1.024-.22.136-.4 1.216-.4 2.4s.18 2.264.4 2.4c.22.136.4.597.4 1.024 0 .427.18.776.4.776.22 0 .4.283.4.629 0 .718.934 1.771 1.571 1.771.236 0 .429.18.429.4 0 .22.27.4.6.4.33 0 .6.18.6.4 0 .264 14.6.4 43 .4s43-.136 43-.4c0-.22.27-.4.6-.4.33 0 .6-.18.6-.4 0-.22.249-.4.554-.4.59 0 1.846-2.288 1.846-3.36 0-.352.18-.64.4-.64.226 0 .4-1.133.4-2.6 0-1.43-.157-2.6-.35-2.6-.192 0-.459-.545-.592-1.21-.229-1.146-.998-2.093-2.993-3.69-.951-.762-86.465-1.125-86.465-.368m-.696 44.19c-.935.484-1.921 1.371-2.197 1.978-.276.605-.638 1.1-.805 1.1-.166 0-.302.439-.302.976 0 .537-.18 1.088-.4 1.224-.22.136-.4 1.126-.4 2.2 0 1.074.18 2.064.4 2.2.22.136.4.687.4 1.224 0 .537.18.976.4.976.22 0 .4.269.4.597 0 .329.747 1.139 1.66 1.8l1.66 1.203h56.646l1.617-1.538c.889-.846 1.617-1.746 1.617-2s.18-.462.4-.462c.24 0 .4-1.6.4-4s-.16-4-.4-4c-.22 0-.4-.198-.4-.44 0-.676-2.571-3.093-3.777-3.551-.696-.265-10.637-.401-28.149-.387l-27.074.021-1.696.879m79.107-.477c-.543.217-1.083.521-1.2.675-.116.154-.564.475-.996.714-1.265.7-3.022 4.549-3.009 6.594.013 2.092 2.347 6.772 3.378 6.772.285 0 .742.27 1.016.6.838 1.01 7.723.837 9.462-.239 1.359-.839 2.538-2.577 2.538-3.741 0-.341.18-.62.4-.62.229 0 .4-1.2.4-2.8 0-1.6-.171-2.8-.4-2.8-.22 0-.401-.315-.401-.7-.008-3.448-6.867-6.179-11.188-4.455M221.6 200.8c0 .22-.36.4-.8.4-.44 0-.8.18-.8.4 0 .22-.54.4-1.2.4-.66 0-1.2.18-1.2.4 0 .22-.36.4-.8.4-.44 0-.8.18-.8.4 0 .22-.54.4-1.2.4-.66 0-1.2.18-1.2.4 0 .22-.36.4-.8.4-.44 0-.8.18-.8.4 0 .22-.45.4-1 .4s-1 .18-1 .4c0 .22-.36.4-.8.4-.44 0-.8.18-.8.4 0 .22-.54.4-1.2.4-.66 0-1.2.18-1.2.4 0 .22-.36.4-.8.4-.44 0-.8.18-.8.4 0 .22-.495.401-1.1.402-.605.002-1.616.272-2.246.6-.63.329-1.307.598-1.504.598-.197 0-1.212.378-2.254.84-1.043.462-2.256.984-2.696 1.16-.44.176-1.653.698-2.696 1.16-1.042.462-2.167.84-2.5.84-.332 0-.604.18-.604.4 0 .22-.349.4-.776.4-.427 0-.888.18-1.024.4-.136.22-.687.4-1.224.4-.537 0-.976.18-.976.4 0 .22-.349.4-.776.4-.427 0-.888.18-1.024.4-.136.22-.687.4-1.224.4-.537 0-.976.18-.976.4 0 .22-.36.4-.8.4-.44 0-.8.18-.8.4 0 .22-.355.4-.788.4-.433 0-1.429.36-2.212.8-.783.44-1.779.8-2.212.8-.433 0-.788.18-.788.4 0 .22-.36.4-.8.4-.44 0-.8.18-.8.4 0 .22-.54.4-1.2.4-.66 0-1.2.18-1.2.4 0 .22-.36.4-.8.4-.44 0-.8.18-.8.4 0 .22-.54.4-1.2.4-.66 0-1.2.18-1.2.4 0 .22-.36.4-.8.4-.44 0-.8.18-.8.4 0 .22-.428.4-.95.4-.523 0-1.968.45-3.212 1-1.243.55-2.526 1-2.849 1-.324 0-.589.18-.589.4 0 .22-.439.4-.976.4-.537 0-1.088.18-1.224.4-.136.22-.597.4-1.024.4-.427 0-.776.18-.776.4 0 .22-.439.4-.976.4-.537 0-1.088.18-1.224.4-.136.22-.597.4-1.024.4-.427 0-.776.18-.776.4 0 .22-.439.4-.976.4-.537 0-1.088.18-1.224.4-.136.22-.597.4-1.024.4-.427 0-.776.18-.776.4 0 .22-.45.4-1 .4s-1 .18-1 .4c0 .22-.36.4-.8.4-.44 0-.8.18-.8.4 0 .22-.54.4-1.2.4-.66 0-1.2.18-1.2.4 0 .22-.36.4-.8.4-.44 0-.8.18-.8.4 0 .22-.439.4-.976.4-.537 0-1.088.18-1.224.4-.136.22-.597.4-1.024.4-.427 0-.776.18-.776.4 0 .22-.45.4-1 .4s-1 .18-1 .4c0 .22-.45.4-1 .4s-1 .18-1 .4c0 .22-.349.4-.776.4-.427 0-.888.18-1.024.4-.136.22-.597.4-1.024.4-.427 0-.776.18-.776.4 0 .22-.362.4-.805.4-.443 0-1.118.165-1.5.366-1.31.691-3.496 1.529-5.395 2.069-1.045.297-1.9.68-1.9.852 0 .172-.439.313-.976.313-.537 0-1.088.18-1.224.4-.136.22-.597.4-1.024.4-.427 0-.776.18-.776.4 0 .22-.45.4-1 .4s-1 .18-1 .4c0 .22-.36.4-.8.4-.44 0-.8.18-.8.4 0 .22-.54.4-1.2.4-.66 0-1.2.18-1.2.4 0 .22-.36.4-.8.4-.44 0-.8.18-.8.4 0 .22-.54.4-1.2.4-.66 0-1.2.18-1.2.4 0 .22-.36.4-.8.4-.44 0-.8.18-.8.4 0 .22-.54.4-1.2.4-.66 0-1.2.18-1.2.4 0 .22-.36.4-.8.4-.44 0-.8.18-.8.4 0 .22-.45.4-1 .4s-1 .18-1 .4c0 .22-.36.4-.8.4-.44 0-.8.18-.8.4 0 .22-.54.4-1.2.4-.66 0-1.2.18-1.2.4 0 .22-.36.4-.8.4-.44 0-.8.18-.8.4 0 .263-8.867.4-25.8.4s-25.8.137-25.8.4c0 .22-.72.4-1.6.4-.88 0-1.6.18-1.6.4 0 .22-.72.4-1.6.4-.88 0-1.6.18-1.6.4 0 .22-.45.4-1 .4s-1 .18-1 .4c0 .22-.416.4-.924.4-.507 0-1.272.264-1.7.587-.427.323-1.091.593-1.476.6-.385.007-.7.193-.7.413 0 .22-.36.4-.8.4-.44 0-.8.15-.8.332 0 .183-.495.588-1.1.9-.605.313-1.449.883-1.875 1.268-.427.385-.927.7-1.111.7-.184 0-1.13.765-2.101 1.7-.972.935-2.272 2.18-2.89 2.768-2.046 1.945-3.569 3.747-4.351 5.148-.425.761-1.087 1.675-1.472 2.031-.385.356-.7.851-.7 1.1 0 .249-.18.453-.4.453-.22 0-.4.36-.4.8 0 .44-.18.8-.4.8-.22 0-.4.36-.4.8 0 .44-.18.8-.4.8-.22 0-.4.36-.4.8 0 .44-.18.8-.4.8-.22 0-.4.349-.4.776 0 .427-.18.888-.4 1.024-.22.136-.4.687-.4 1.224 0 .537-.16.976-.356.976-.196 0-.459.585-.584 1.3-.124.715-.401 2.29-.614 3.5-.502 2.85-.502 17.15 0 20 .213 1.21.49 2.785.614 3.5.125.715.388 1.3.584 1.3.196 0 .356.54.356 1.2 0 .66.18 1.2.4 1.2.22 0 .4.36.4.8 0 .44.18.8.4.8.22 0 .4.36.4.8 0 .44.18.8.4.8.22 0 .4.36.4.8 0 .44.136.8.302.8.167 0 .558.585.87 1.3.312.715.896 1.591 1.298 1.947.401.356.73.864.73 1.128 0 .265.225.735.5 1.045.275.309 1.13 1.307 1.9 2.218s1.905 2.13 2.523 2.709c.618.579 1.918 1.818 2.89 2.753.971.935 1.917 1.7 2.101 1.7.184 0 .684.324 1.111.72.426.396 1.585 1.161 2.575 1.7.99.539 1.89 1.092 2 1.23.11.137.785.376 1.5.532.715.155 1.3.447 1.3.65 0 .202.349.368.776.368.427 0 .888.18 1.024.4.136.22.687.4 1.224.4.537 0 .976.18.976.4 0 .22.619.4 1.376.4.757 0 1.488.18 1.624.4.136.22.957.4 1.824.4.867 0 1.576.18 1.576.4 0 .251 2.467.4 6.6.4h6.6v24.805c0 27.157-.157 25.421 2.547 28.094l1.547 1.529 20.267-.114 20.266-.114 1.487-1.487c.817-.817 1.486-1.762 1.486-2.1 0-.337.18-.613.4-.613.262 0 .4-7.8.4-22.6 0-22.333.009-22.6.8-22.6.44 0 .8.18.8.4 0 .22.36.4.8.4.44 0 .8.18.8.4 0 .22.54.4 1.2.4.66 0 1.2.18 1.2.4 0 .22.36.4.8.4.44 0 .8.18.8.4 0 .22.439.4.976.4.537 0 1.088.18 1.224.4.136.22.597.4 1.024.4.427 0 .776.18.776.4 0 .22.45.4 1 .4s1 .18 1 .4c0 .22.349.4.776.4.427 0 .888.18 1.024.4.136.22.515.4.843.4.328 0 1.351.365 2.274.811.923.446 2.354.919 3.181 1.051.826.132 1.502.397 1.502.589 0 .192.36.349.8.349.44 0 .8.18.8.4 0 .22.54.4 1.2.4.66 0 1.2.18 1.2.4 0 .22.36.4.8.4.44 0 .8.18.8.4 0 .22.45.4 1 .4s1 .18 1 .4c0 .22.349.4.776.4.427 0 .888.18 1.024.4.136.22.687.4 1.224.4.537 0 .976.18.976.4 0 .22.349.4.776.4.427 0 .888.18 1.024.4.136.22.687.4 1.224.4.537 0 .976.18.976.4 0 .22.36.4.8.4.44 0 .8.18.8.4 0 .22.54.4 1.2.4.66 0 1.2.18 1.2.4 0 .22.36.4.8.4.44 0 .8.18.8.4 0 .22.45.4 1 .4s1 .18 1 .4c0 .22.349.4.776.4.427 0 .888.18 1.024.4.136.22.687.4 1.224.4.537 0 .976.18.976.4 0 .22.349.4.776.4.427 0 .888.18 1.024.4.136.22.687.4 1.224.4.537 0 .976.18.976.4 0 .22.349.4.776.4.427 0 .888.18 1.024.4.136.22.687.4 1.224.4.537 0 .976.142.976.315 0 .173 1.17.668 2.6 1.1 1.43.432 2.6.92 2.6 1.085 0 .165.54.3 1.2.3.66 0 1.2.18 1.2.4 0 .22.36.4.8.4.44 0 .8.18.8.4 0 .22.54.4 1.2.4.66 0 1.2.18 1.2.4 0 .22.36.4.8.4.44 0 .8.18.8.4 0 .22.54.4 1.2.4.66 0 1.2.18 1.2.4 0 .22.36.4.8.4.44 0 .8.18.8.4 0 .22.355.4.788.4.433 0 1.429.36 2.212.8.783.44 1.779.8 2.212.8.433 0 .788.18.788.4 0 .22.36.4.8.4.44 0 .8.18.8.4 0 .22.439.4.976.4.537 0 1.088.18 1.224.4.136.22.597.4 1.024.4.427 0 .776.18.776.4 0 .22.439.4.976.4.537 0 1.088.18 1.224.4.136.22.597.4 1.024.4.427 0 .776.147.776.328 0 .18.9.572 2 .872 1.1.3 2 .692 2 .872 0 .181.272.328.605.328.333 0 .918.159 1.3.353.382.195 1.235.576 1.895.847.66.271 1.493.64 1.851.819.358.18 1.303.449 2.1.598.797.15 1.449.432 1.449.628 0 .195.54.355 1.2.355.66 0 1.2.18 1.2.4 0 .22.36.4.8.4.44 0 .8.18.8.4 0 .22.54.4 1.2.4.66 0 1.2.18 1.2.4 0 .22.36.4.8.4.44 0 .8.18.8.4 0 .22.45.4 1 .4s1 .18 1 .4c0 .22.349.4.776.4.427 0 .888.18 1.024.4.136.22.687.4 1.224.4.537 0 .976.18.976.4 0 .22.36.4.8.4.44 0 .8.18.8.4 0 .22.525.4 1.167.4.641 0 1.241.225 1.333.5.121.364 1.518.5 5.147.5h4.98l1.441-1.441c2.456-2.456 2.332-.712 2.332-32.789 0-32.825-.169-30.726 2.476-30.757.592-.007 1.188-.193 1.324-.413.136-.22.687-.4 1.224-.4.537 0 .976-.18.976-.4 0-.22.36-.4.8-.4.44 0 .8-.18.8-.4 0-.22.36-.4.8-.4.44 0 .8-.18.8-.4 0-.22.272-.4.604-.4.332 0 1.168-.54 1.859-1.2.691-.66 1.413-1.2 1.605-1.2.553 0 7.932-7.177 7.932-7.715 0-.175.36-.705.8-1.177.44-.472.8-1.095.8-1.383 0-.289.18-.525.4-.525.22 0 .4-.36.4-.8 0-.44.164-.8.365-.8.201 0 .486-.72.635-1.6.149-.88.434-1.6.635-1.6s.365-.54.365-1.2c0-.66.18-1.2.4-1.2.22 0 .4-.619.4-1.376 0-.757.18-1.488.4-1.624.22-.136.4-1.767.4-3.624 0-1.984.165-3.376.4-3.376.22 0 .4-.36.4-.8 0-.44-.18-.8-.4-.8-.235 0-.4-1.392-.4-3.376 0-1.857-.18-3.488-.4-3.624-.22-.136-.4-.867-.4-1.624 0-.757-.18-1.376-.4-1.376-.22 0-.4-.54-.4-1.2 0-.66-.18-1.2-.4-1.2-.22 0-.4-.302-.4-.67 0-.898-2.801-6.53-3.248-6.53-.193 0-.352-.263-.352-.583 0-.321-.855-1.396-1.9-2.388-5.434-5.161-6.646-6.229-7.065-6.229-.252 0-.718-.36-1.035-.8-.317-.44-.897-.8-1.288-.8-.392 0-.712-.18-.712-.4 0-.22-.36-.4-.8-.4-.44 0-.801-.135-.803-.3-.004-.401-1.978-1.3-2.853-1.3-.383 0-.808-.18-.944-.4-.136-.22-.561-.4-.944-.4-.383 0-1.181-.225-1.773-.5l-1.077-.5-.003-30.091-.003-30.092-2.209-2.208-2.208-2.209h-3.992c-2.394 0-3.991.16-3.991.4m-4.8 99.6c0 52.267-.135 78.8-.4 78.8-.22 0-.4-.18-.4-.4 0-.22-.349-.4-.776-.4-.427 0-.888-.18-1.024-.4-.136-.22-.687-.4-1.224-.4-.537 0-.976-.18-.976-.4 0-.22-.33-.4-.733-.4-.404 0-.853-.119-.999-.265-.409-.409-4.347-1.735-5.153-1.735-.393 0-.715-.18-.715-.4 0-.22-.36-.4-.8-.4-.44 0-.8-.18-.8-.4 0-.22-.54-.4-1.2-.4-.66 0-1.2-.18-1.2-.4 0-.22-.36-.4-.8-.4-.44 0-.8-.18-.8-.4 0-.22-.439-.4-.976-.4-.537 0-1.088-.18-1.224-.4-.136-.22-.597-.4-1.024-.4-.427 0-.776-.18-.776-.4 0-.22-.343-.4-.762-.4-.659 0-1.827-.486-4.933-2.05-.382-.193-.967-.35-1.3-.35-.333 0-.605-.18-.605-.4 0-.22-.439-.4-.976-.4-.537 0-1.088-.18-1.224-.4-.136-.22-.597-.4-1.024-.4-.427 0-.776-.147-.776-.328 0-.18-.9-.572-2-.872-1.1-.3-2-.692-2-.872 0-.181-.349-.328-.776-.328-.427 0-.888-.18-1.024-.4-.136-.22-.687-.4-1.224-.4-.537 0-.976-.18-.976-.4 0-.22-.272-.4-.605-.4-.333 0-.918-.159-1.3-.353-.727-.37-2.53-1.138-3.895-1.66a66.63 66.63 0 01-2.26-.946c-.804-.353-1.929-.641-2.5-.641-.572 0-1.04-.18-1.04-.4 0-.22-.36-.4-.8-.4-.44 0-.8-.18-.8-.4 0-.22-.54-.4-1.2-.4-.66 0-1.2-.18-1.2-.4 0-.22-.36-.4-.8-.4-.44 0-.8-.18-.8-.4 0-.22-.45-.4-1-.4s-1-.18-1-.4c0-.22-.349-.4-.776-.4-.427 0-.888-.18-1.024-.4-.136-.22-.687-.4-1.224-.4-.537 0-.976-.18-.976-.4 0-.22-.36-.4-.8-.4-.44 0-.8-.18-.8-.4 0-.22-.54-.4-1.2-.4-.66 0-1.2-.18-1.2-.4 0-.22-.36-.4-.8-.4-.44 0-.8-.18-.8-.4 0-.22-.54-.4-1.2-.4-.66 0-1.2-.18-1.2-.4 0-.22-.36-.4-.8-.4-.44 0-.8-.18-.8-.4 0-.22-.355-.4-.788-.4-.433 0-1.429-.36-2.212-.8-.783-.44-1.779-.8-2.212-.8-.433 0-.788-.18-.788-.4 0-.22-.349-.4-.776-.4-.427 0-.888-.18-1.024-.4-.136-.22-.687-.4-1.224-.4-.537 0-.976-.18-.976-.4 0-.22-.349-.4-.776-.4-.427 0-.888-.18-1.024-.4-.136-.22-.687-.4-1.224-.4-.537 0-.976-.18-.976-.4 0-.22-.349-.4-.776-.4-.427 0-.878-.164-1.002-.365-.125-.201-.945-.487-1.824-.635-.879-.149-1.598-.434-1.598-.635s-.439-.365-.976-.365c-.537 0-1.088-.18-1.224-.4-.136-.22-.597-.4-1.024-.4-.427 0-.776-.18-.776-.4 0-.22-.45-.4-1-.4s-1-.18-1-.4c0-.22-.45-.4-1-.4s-1-.18-1-.4c0-.22-.349-.4-.776-.4-.427 0-.888-.18-1.024-.4-.136-.22-.687-.4-1.224-.4-.537 0-.976-.18-.976-.4 0-.22-.272-.4-.605-.4-.333 0-.918-.159-1.3-.353a32.261 32.261 0 00-1.895-.847 32.261 32.261 0 01-1.895-.847c-.382-.194-.967-.353-1.3-.353-.333 0-.605-.18-.605-.4 0-.22-.349-.4-.776-.4-.427 0-.888-.18-1.024-.4-.136-.22-.687-.4-1.224-.4-.537 0-.976-.18-.976-.4 0-.22-.36-.4-.8-.4-.793 0-.8-.267-.8-31.2s.007-31.2.8-31.2c.44 0 .8-.18.8-.4 0-.22.439-.4.976-.4.537 0 1.088-.18 1.224-.4.136-.22.597-.4 1.024-.4.427 0 .776-.18.776-.4 0-.22.45-.4 1-.4s1-.18 1-.4c0-.22.349-.4.776-.4.427 0 .888-.18 1.024-.4.136-.22.687-.4 1.224-.4.537 0 .976-.18.976-.4 0-.22.36-.4.8-.4.44 0 .8-.18.8-.4 0-.22.54-.4 1.2-.4.66 0 1.2-.18 1.2-.4 0-.22.36-.4.8-.4.44 0 .8-.18.8-.4 0-.22.439-.4.976-.4.537 0 1.088-.18 1.224-.4.136-.22.597-.4 1.024-.4.427 0 .776-.18.776-.4 0-.22.45-.4 1-.4s1-.18 1-.4c0-.22.45-.4 1-.4s1-.16 1-.355c0-.196.652-.478 1.449-.628.797-.149 1.742-.418 2.1-.598a35.401 35.401 0 011.851-.819c.66-.271 1.513-.652 1.895-.847.382-.194.967-.353 1.3-.353.333 0 .605-.18.605-.4 0-.22.439-.4.976-.4.537 0 1.088-.18 1.224-.4.136-.22.597-.4 1.024-.4.427 0 .776-.18.776-.4 0-.22.355-.4.788-.4.433 0 1.429-.36 2.212-.8.783-.44 1.779-.8 2.212-.8.433 0 .788-.18.788-.4 0-.22.36-.4.8-.4.44 0 .8-.18.8-.4 0-.22.54-.4 1.2-.4.66 0 1.2-.18 1.2-.4 0-.22.36-.4.8-.4.44 0 .8-.18.8-.4 0-.22.54-.4 1.2-.4.66 0 1.2-.18 1.2-.4 0-.22.36-.4.8-.4.44 0 .8-.18.8-.4 0-.22.439-.4.976-.4.537 0 1.088-.18 1.224-.4.136-.22.597-.4 1.024-.4.427 0 .776-.18.776-.4 0-.22.45-.4 1-.4s1-.18 1-.4c0-.22.36-.4.8-.4.44 0 .8-.18.8-.4 0-.22.54-.4 1.2-.4.66 0 1.2-.18 1.2-.4 0-.22.36-.4.8-.4.44 0 .8-.18.8-.4 0-.22.54-.4 1.2-.4.66 0 1.2-.16 1.2-.355 0-.196.652-.478 1.449-.628.797-.149 1.742-.418 2.1-.598A35.401 35.401 0 01171.4 240c.66-.271 1.513-.652 1.895-.847.382-.194.967-.353 1.3-.353.333 0 .605-.147.605-.328 0-.18.9-.572 2-.872 1.1-.3 2-.692 2-.872 0-.181.349-.328.776-.328.427 0 .888-.18 1.024-.4 1.371-2.218 1.4-1.412 1.4 38.988 0 38.772.013 39.41.808 40.826 1.028 1.831 2.578 3.386 3.374 3.386.34 0 .618.18.618.4 0 .853 7.362.485 8-.4.317-.44.897-.8 1.288-.8.392 0 .712-.236.712-.525 0-.288.36-.911.8-1.383.44-.472.8-1.316.8-1.875 0-.559.18-1.017.4-1.017.264 0 .4-14.41.4-42.429 0-46.101-.126-43.571 2.171-43.571.566 0 1.029-.18 1.029-.4 0-.22.36-.4.8-.4.44 0 .8-.18.8-.4 0-.22.414-.4.92-.4s1.091-.148 1.3-.329c.209-.181 1.505-.676 2.88-1.1 1.375-.424 2.5-.873 2.5-.999 0-.125.9-.472 2-.772 1.1-.3 2-.692 2-.872 0-.181.18-.328.4-.328.265 0 .4 26.533.4 78.8m75-67.6c-.136.22-.687.4-1.224.4-.537 0-.976.18-.976.4 0 .22-.275.4-.61.4-.821 0-17.39 16.534-17.39 17.354 0 .355-.18.646-.4.646-.22 0-.4.36-.4.8 0 .44-.18.8-.4.8-.226 0-.4 1.133-.4 2.6s.174 2.6.4 2.6c.22 0 .4.272.4.605 0 1.337 2.305 4.195 3.382 4.195.34 0 .618.18.618.4 0 .22.542.4 1.205.4s1.587.225 2.053.5c.677.4.883.4 1.028 0 .102-.284.857-.5 1.747-.5.862 0 1.567-.18 1.567-.4 0-.22.28-.4.622-.4.794 0 18.178-17.408 18.178-18.204 0-.328.18-.596.4-.596.853 0 .485-7.362-.4-8-.44-.317-.8-.882-.8-1.255 0-.373-.54-.917-1.2-1.209-.66-.292-1.2-.667-1.2-.834 0-.166-.54-.302-1.2-.302-.66 0-1.2-.18-1.2-.4 0-.22-.799-.4-1.776-.4s-1.888.18-2.024.4m-211 67.6v28H60.024c-13.42 0-20.864-.142-21.024-.4-.136-.22-.766-.4-1.4-.4-.634 0-1.264-.18-1.4-.4-.136-.22-.552-.397-.924-.394-.753.007-5-2.036-5.209-2.506-.074-.165-.403-.3-.732-.3-.329 0-1.289-.72-2.135-1.6-.846-.88-1.719-1.6-1.942-1.6-.222 0-.505-.315-.628-.7-.123-.385-.938-1.48-1.81-2.432-.873-.953-1.696-2.078-1.83-2.5-.134-.423-.412-.768-.617-.768-.205 0-.373-.36-.373-.8 0-.44-.18-.8-.4-.8-.22 0-.4-.36-.4-.8 0-.44-.18-.8-.4-.8-.22 0-.4-.45-.4-1s-.18-1-.4-1c-.22 0-.4-.54-.4-1.2 0-.66-.18-1.2-.4-1.2-.249 0-.4-2.325-.4-6.176 0-3.687.161-6.276.4-6.424.22-.136.4-.777.4-1.424 0-.647.18-1.176.4-1.176.22 0 .4-.45.4-1s.18-1 .4-1c.22 0 .4-.36.4-.8 0-.44.159-.8.353-.8.195 0 .454-.315.576-.7.352-1.11 1.561-2.923 2.97-4.454.715-.776 1.402-1.734 1.527-2.129.125-.394.41-.717.632-.717.223 0 1.096-.72 1.942-1.6.846-.88 1.821-1.6 2.169-1.6.347 0 .631-.18.631-.4 0-.22.36-.4.8-.4.44 0 .8-.145.8-.323 0-.398 2.83-1.677 3.711-1.677.353 0 .753-.18.889-.4.136-.22.766-.4 1.4-.4.634 0 1.264-.18 1.4-.4.16-.258 7.604-.4 21.024-.4H80.8v28m155.734-15.1c.72.715 1.882 1.75 2.583 2.3.702.55 1.277 1.185 1.279 1.412.002.226.364.671.804.988.44.317.8.735.8.928 0 .193.245.918.544 1.612 1.29 2.99 1.456 3.589 1.456 5.255 0 .967.18 1.869.401 2.006.268.165.268.496 0 .997-.221.412-.401 1.473-.401 2.357 0 1.525-.173 2.131-1.456 5.105-.299.694-.544 1.389-.544 1.546 0 .778-6.927 6.994-7.795 6.994-.113 0-.205-7.38-.205-16.4 0-18.2-.083-17.702 2.534-15.1m52.666 7.056c-1.794.331-4.4 1.659-4.4 2.243 0 .247-.36.837-.8 1.309-.488.523-.8 1.411-.8 2.275 0 .779-.18 1.417-.4 1.417-.22 0-.4.439-.4.976 0 .537.18 1.088.4 1.224.22.136.4.867.4 1.624 0 .757.18 1.376.4 1.376.22 0 .4.198.4.44 0 .606 2.374 2.77 3.515 3.204.516.196 12.299.356 26.186.356h25.249l1.31-.897c.72-.493 1.526-1.303 1.792-1.8.266-.497.633-.903.816-.903.182 0 .332-.54.332-1.2 0-.66.18-1.2.4-1.2.22 0 .4-.979.4-2.176s-.18-2.288-.4-2.424c-.22-.136-.4-.597-.4-1.024 0-.427-.18-.776-.4-.776-.22 0-.4-.278-.4-.618 0-.678-1.292-2.043-2.822-2.982-1.03-.632-47.148-1.038-50.378-.444M189.6 335.2c0 .22-.54.4-1.2.4-.66 0-1.2.18-1.2.4 0 .22-.276.4-.613.4-.796 0-3.387 2.591-3.387 3.387 0 .337-.18.613-.4.613-.824 0-.477 6.166.4 7.108.44.472.8 1.059.8 1.304 0 .573.719 1.243 2.1 1.956.605.312 1.1.717 1.1.9 0 .721 7.004.374 7.825-.388.426-.396 1.09-.841 1.475-.988.385-.147.7-.503.7-.791 0-.288.36-.784.8-1.101.463-.333.8-1.035.8-1.665 0-.598.18-1.199.4-1.335.22-.136.4-.957.4-1.824 0-.867-.18-1.576-.4-1.576-.22 0-.4-.54-.4-1.2 0-.66-.18-1.2-.4-1.2-.22 0-.4-.294-.4-.653 0-.731-1.925-2.546-2.7-2.547-.275 0-.5-.18-.5-.4 0-.22-.72-.4-1.6-.4-.88 0-1.6-.18-1.6-.4 0-.22-.45-.4-1-.4s-1 .18-1 .4m88.2 0c-.136.22-.867.4-1.624.4-.757 0-1.376.18-1.376.4 0 .22-.278.4-.618.4-.34 0-1.06.442-1.6.982s-.982 1.26-.982 1.6c0 .34-.18.618-.4.618-.22 0-.4.36-.4.8 0 .44-.18.8-.4.8-.226 0-.4 1.133-.4 2.6s.174 2.6.4 2.6c.22 0 .4.36.4.8 0 .44.18.8.4.8.22 0 .4.292.4.65 0 .77 16.528 17.35 17.296 17.35.29 0 .787.36 1.104.8.398.552 1.035.8 2.055.8.818 0 1.56.223 1.662.5.146.4.289.4.713 0 .291-.275 1.214-.5 2.05-.5.836 0 1.52-.18 1.52-.4 0-.22.278-.4.618-.4 3.054 0 5.585-8.383 3.382-11.2-.43-.55-.786-1.138-.791-1.306-.018-.611-17.584-17.894-18.188-17.894-.342 0-.621-.18-.621-.4 0-.22-.72-.4-1.6-.4-.88 0-1.6-.18-1.6-.4 0-.22-.259-.4-.576-.4-.317 0-.688.18-.824.4m-197 29.6V384h-14v-38.4h14v19.2" fill="#04d46c" fill-rule="evenodd"/></svg>