<svg xmlns="http://www.w3.org/2000/svg" width="400" height="400"><path d="M126.6 18.8c-.136.22-.597.4-1.024.4-.427 0-.776.18-.776.4 0 .22-.36.4-.8.4-.44 0-.8.18-.8.4 0 .22-.5.4-1.112.4-.653 0-1.349.33-1.688.8-.317.44-.897.8-1.288.8-.392 0-.712.18-.712.4 0 .22-.256.4-.569.4-1.055 0-8.206 7.522-8.224 8.651-.004.248-.277.675-.607.949-.33.274-.6.836-.6 1.249 0 .413-.18.751-.4.751-.22 0-.4.362-.4.805 0 .443-.18 1.163-.4 1.6l-.8 1.59c-.22.437-.4 1.416-.4 2.176 0 .76-.18 1.493-.4 1.629-.262.162-.4 12.071-.4 34.424V111.2H88.544c-18.511 0-17.703-.122-17.731 2.676-.007.702-.193 1.388-.413 1.524-.22.136-.4 1.227-.4 2.424 0 1.197-.18 2.176-.4 2.176-.22 0-.4.72-.4 1.6 0 .88-.18 1.6-.4 1.6-.22 0-.4.36-.4.8 0 .44-.18.8-.4.8-.22 0-.4-.18-.4-.4 0-.22-.32-.4-.712-.4-.391 0-.971-.36-1.288-.8-.317-.44-.897-.8-1.288-.8-.392 0-.712-.18-.712-.4 0-.22-.32-.4-.712-.4-.391 0-.971-.36-1.288-.8-.317-.44-.857-.8-1.2-.8-.343 0-.883-.36-1.2-.8-.317-.44-.897-.8-1.288-.8-.392 0-.712-.18-.712-.4 0-.837-1.539-.352-2.225.7-.395.605-2.136 2.45-3.869 4.1-4.513 4.295-8.301 8.092-13.106 13.135-2.31 2.424-4.364 4.421-4.565 4.436-.2.016-2.2 1.919-4.444 4.229-2.244 2.31-4.285 4.2-4.535 4.2-.566 0-.607 2.259-.048 2.605.224.138.862 1.094 1.417 2.123 2.34 4.335 2.807 5.104 3.474 5.719.385.356.701.941.701 1.3 0 .359.18.653.4.653.22 0 .4.18.4.4 0 .22-.36.4-.8.4-.44 0-.8.18-.8.4 0 .22-.619.4-1.376.4-.757 0-1.488.18-1.624.4-.136.22-1.101.4-2.144.4-1.043 0-2.067.167-2.276.371-.209.205-1.01.43-1.78.5l-1.4.129-.103 23.7-.103 23.7h1.603c.882 0 1.603.18 1.603.4 0 .22.99.4 2.2.4 1.21 0 2.2.18 2.2.4 0 .22.72.4 1.6.4.88 0 1.6.18 1.6.4 0 .22.36.4.8.4.44 0 .8.18.8.4 0 .22-.18.4-.4.4-.22 0-.4.278-.4.617 0 .339-.36 1.003-.8 1.475-.44.472-.8 1.095-.8 1.383 0 .289-.18.525-.4.525-.22 0-.4.36-.4.8 0 .44-.159.8-.353.8-.194 0-.822.99-1.395 2.2-.573 1.21-1.224 2.2-1.447 2.2-.223 0-.405.54-.405 1.2 0 .66.175 1.2.389 1.2.214 0 3.53 3.105 7.371 6.9 3.84 3.795 7.67 7.53 8.512 8.3.842.77 1.98 2.074 2.529 2.897.55.824 1.129 1.499 1.288 1.5.443.004 11.111 10.771 11.111 11.214 0 .214.354.389.786.389.967 0 3.614-1.226 3.614-1.674 0-.179.236-.326.525-.326.288 0 .911-.36 1.383-.8.472-.44 1.136-.8 1.475-.8.339 0 .617-.18.617-.4 0-.22.236-.4.525-.4.288 0 .911-.36 1.383-.8.472-.44 1.136-.8 1.475-.8.339 0 .617-.18.617-.4 0-.22.18-.4.4-.4.22 0 .4.36.4.8 0 .44.18.8.4.8.22 0 .4.72.4 1.6 0 .88.18 1.6.4 1.6.22 0 .4.99.4 2.2 0 1.21.18 2.2.4 2.2.22 0 .4.643.4 1.429 0 2.661-.621 2.571 17.771 2.571H105.2v45.976c0 30.22.137 46.062.4 46.224.22.136.4.869.4 1.629s.18 1.739.4 2.176l.8 1.59c.22.437.4 1.157.4 1.6 0 .443.18.805.4.805.22 0 .4.338.4.751s.27.975.6 1.249c.33.274.603.701.607.949.019 1.141 7.139 8.651 8.202 8.651.325 0 .591.18.591.4 0 .22.36.4.8.4.44 0 .801.135.803.3.004.359 1.941 1.3 2.677 1.3.286 0 .52.18.52.4 0 .22.36.4.8.4.44 0 .8.18.8.4 0 .22.438.4.973.4.622 0 1.065.289 1.227.8.402 1.265 169.4 1.265 169.4 0 0-.622.267-.8 1.2-.8.66 0 1.2-.18 1.2-.4 0-.22.36-.4.8-.4.44 0 .8-.18.8-.4 0-.22.234-.4.52-.4.736 0 2.673-.941 2.677-1.3.002-.165.363-.3.803-.3.44 0 .8-.18.8-.4 0-.22.186-.4.414-.4.228 0 .813-.362 1.3-.804 3.429-3.112 4.286-3.985 4.286-4.365 0-.237.18-.431.4-.431.22 0 .4-.23.4-.512 0-.281.36-.771.8-1.088.44-.317.8-.857.8-1.2 0-.343.36-.883.8-1.2.44-.317.8-.809.8-1.094 0-.284.18-.874.4-1.311l.8-1.59c.22-.437.4-1.146.4-1.576 0-.43.18-.893.4-1.029.22-.136.4-.856.4-1.6 0-.744.18-1.464.4-1.6.262-.162.4-12.471.4-35.624V286.4h1.176c.647 0 1.288-.18 1.424-.4.136-.22.766-.4 1.4-.4.634 0 1.264-.18 1.4-.4.136-.22.687-.4 1.224-.4.537 0 .976-.18.976-.4 0-.22.54-.4 1.2-.4.66 0 1.2-.18 1.2-.4 0-.22.529-.4 1.176-.4.647 0 1.288-.18 1.424-.4.136-.22.687-.4 1.224-.4.537 0 .976-.18.976-.4 0-.22.36-.4.8-.4.44 0 .8-.18.8-.4 0-.22.36-.4.8-.4.44 0 .8-.18.8-.4 0-.22.36-.4.8-.4.44 0 .8-.18.8-.4 0-.22.236-.4.525-.4.288 0 .911-.36 1.383-.8.472-.44 1.046-.8 1.275-.8a.41.41 0 00.417-.4c0-.22.32-.4.712-.4.391 0 .971-.36 1.288-.8.317-.44.869-.8 1.227-.8.358 0 1.066-.36 1.573-.8.507-.44 1.067-.8 1.243-.8.176 0 .771-.45 1.321-1 .55-.55 1.145-1 1.322-1 .985 0 12.514-11.21 12.514-12.168 0-.318.331-.683.736-.812.405-.128.99-.722 1.3-1.32.31-.597 1.059-1.611 1.664-2.252.605-.642 1.1-1.37 1.1-1.619 0-.249.36-.712.8-1.029.44-.317.8-.857.8-1.2 0-.343.36-.883.8-1.2.44-.317.8-.882.8-1.255 0-.373.16-.738.356-.812.489-.182 4.044-7.299 4.044-8.093 0-.352.18-.64.4-.64.22 0 .4-.36.4-.8 0-.44.18-.8.4-.8.22 0 .4-.63.4-1.4 0-.77.18-1.4.4-1.4.22 0 .4-.439.4-.976 0-.537.18-1.088.4-1.224.22-.136.4-.777.4-1.424 0-.647.18-1.176.4-1.176.22 0 .4-.54.4-1.2 0-.66.18-1.2.4-1.2.22 0 .4-.619.4-1.376 0-.757.18-1.488.4-1.624.22-.136.4-.883.4-1.661 0-.807.343-1.849.8-2.43 1.244-1.581 1.244-27.983 0-29.109-.566-.512-.8-1.232-.8-2.462 0-.956-.18-1.738-.4-1.738-.22 0-.4-.72-.4-1.6 0-.88-.18-1.6-.4-1.6-.22 0-.4-.54-.4-1.2 0-.66-.18-1.2-.4-1.2-.22 0-.4-.529-.4-1.176 0-.647-.18-1.288-.4-1.424-.22-.136-.4-.687-.4-1.224 0-.537-.18-.976-.4-.976-.22 0-.4-.63-.4-1.4 0-.77-.18-1.4-.4-1.4-.22 0-.4-.36-.4-.8 0-.44-.18-.8-.4-.8-.22 0-.4-.285-.4-.632 0-.743-3.289-7.459-4.001-8.168-.11-.11-.455-.695-.767-1.3-.312-.605-.717-1.1-.9-1.1-.182 0-.332-.242-.332-.538 0-.296-.36-.864-.8-1.262-.44-.398-.8-.878-.8-1.066 0-.188-.54-.906-1.2-1.597-.66-.691-1.2-1.427-1.2-1.636 0-.209-.54-.884-1.2-1.501-.66-.617-1.2-1.293-1.2-1.503 0-.56-7.558-8.214-9.2-9.318-.77-.518-1.691-1.265-2.047-1.66-.356-.395-.852-.719-1.104-.719-.251 0-1.021-.54-1.712-1.2-.691-.66-1.459-1.2-1.708-1.2-.249 0-.712-.36-1.029-.8-.317-.44-.857-.8-1.2-.8-.343 0-.883-.36-1.2-.8-.317-.44-.897-.8-1.288-.8-.392 0-.712-.18-.712-.4a.41.41 0 00-.417-.4c-.229 0-.803-.36-1.275-.8-.472-.44-1.095-.8-1.383-.8-.289 0-.525-.18-.525-.4 0-.22-.36-.4-.8-.4-.44 0-.8-.18-.8-.4 0-.22-.36-.4-.8-.4-.44 0-.8-.18-.8-.4 0-.22-.272-.4-.605-.4-.333 0-.963-.18-1.4-.4l-1.59-.8c-.437-.22-1.247-.4-1.8-.4-.553 0-1.005-.18-1.005-.4 0-.22-.54-.4-1.2-.4-.66 0-1.2-.18-1.2-.4 0-.22-.362-.4-.805-.4-.443 0-1.118-.164-1.5-.365-.382-.2-1.73-.589-2.995-.864l-2.3-.499V83.96c0-26.977-.138-41.198-.4-41.36-.22-.136-.403-.732-.406-1.324-.006-1.116-.84-3.856-1.32-4.335-.151-.151-.274-.694-.274-1.208 0-.513-.18-.933-.4-.933-.22 0-.4-.32-.4-.712 0-.391-.36-.971-.8-1.288-.44-.317-.8-.857-.8-1.2 0-.343-.36-.883-.8-1.2-.44-.317-.8-.807-.8-1.088 0-.282-.18-.512-.4-.512-.22 0-.404-.225-.409-.5-.005-.275-.75-1.13-1.656-1.9-.907-.77-2.064-1.805-2.573-2.3-.509-.495-1.114-.9-1.344-.9a.41.41 0 01-.418-.4c0-.22-.36-.4-.8-.4-.44 0-.8-.18-.8-.4 0-.22-.27-.4-.6-.4-.33 0-.6-.18-.6-.4 0-.22-.45-.4-1-.4s-1-.18-1-.4c0-.22-.36-.4-.8-.4-.44 0-.8-.18-.8-.4 0-.22-.439-.4-.976-.4-.537 0-1.088-.18-1.224-.4-.164-.265-28.93-.4-85-.4s-84.836.135-85 .4m213 5.809v6.21l6.9-.11 6.9-.109.11-6.1.111-6.1H339.6v6.209M290.4 31.2c0 .22.63.4 1.4.4.77 0 1.4.18 1.4.4 0 .22.36.4.8.4.44 0 .8.18.8.4 0 .22.36.4.8.4.44 0 .8.15.8.332 0 .183.494.588 1.097.9 1.313.68 3.703 2.974 3.703 3.555 0 .227.18.413.4.413.22 0 .4.27.4.6 0 .33.135.601.3.603.406.004 1.3 1.983 1.3 2.877 0 .396.18.72.4.72.257 0 .4 3.8.4 10.6v10.6H119.2V53.8c0-6.8.143-10.6.4-10.6.22 0 .4-.343.4-.762 0-1.685 4.24-7.638 5.44-7.638.211 0 .643-.36.96-.8.317-.44.897-.8 1.288-.8.392 0 .712-.18.712-.4 0-.22.36-.4.8-.4.44 0 .8-.18.8-.4 0-.22.72-.4 1.6-.4.88 0 1.6-.18 1.6-.4 0-.265 26.467-.4 78.6-.4 52.133 0 78.6.135 78.6.4M175.69 47.7l.11 6.5h48.4l.11-6.5.11-6.5h-48.84l.11 6.5m58.4 0l.11 6.5h13.6l.11-6.5.11-6.5h-14.04l.11 6.5M339.6 65.4c0 21.536-.068 24.2-.617 24.2-.339 0-1.003.36-1.475.8-.472.44-1.095.8-1.383.8-.289 0-.525.168-.525.373s-.334.479-.742.609c-1.4.444-4.193 3.688-5.353 6.218-2.12 4.622-2.459 12.121-.641 14.18.185.209.336.704.336 1.1 0 .396.18.72.4.72.22 0 .4.36.4.8 0 .44.141.8.314.8.172 0 .635.545 1.029 1.211.837 1.417 2.536 3.189 3.057 3.189.2 0 .814.45 1.364 1 .55.55 1.278 1 1.618 1 .34 0 .618.18.618.4 0 .22.36.4.8.4.44 0 .8.18.8.4 0 .22.529.4 1.176.4.647 0 1.288.18 1.424.4.139.225 2.063.4 4.4.4s4.261-.175 4.4-.4c.136-.22.566-.4.956-.4 2.239 0 7.897-4.081 9.565-6.9.359-.605.793-1.1.965-1.1.173 0 .314-.36.314-.8 0-.44.18-.8.4-.8.22 0 .4-.36.4-.8 0-.44.18-.8.4-.8.22 0 .4-.529.4-1.176 0-.647.18-1.288.4-1.424.959-.593.355-7.91-.849-10.295-.193-.382-.351-.967-.351-1.3 0-.333-.18-.605-.4-.605-.22 0-.4-.236-.4-.525 0-.288-.36-.911-.8-1.383-.44-.472-.8-.974-.8-1.115 0-.503-3.817-3.777-4.405-3.777a.399.399 0 01-.395-.4c0-.22-.27-.4-.6-.4-.33 0-.6-.18-.6-.4 0-.22-.36-.4-.8-.4-.791 0-.8-.267-.8-24.2V41.2h-14v24.2m-35 35v22.8h-10l.108-17.601.108-17.601-83.108.101-83.108.101v223.6l83.1.101 83.1.101V288.8h9.583l.108 16.8.109 16.8H119V77.6h185.6v22.8m-23.8 12.736v11.936l-2.3.529c-1.265.29-2.471.679-2.68.863-.209.185-.884.336-1.5.336s-1.12.18-1.12.4c0 .22-.36.4-.8.4-.772 0-.8-.267-.8-7.751 0-6.037-.12-7.851-.543-8.201-.398-.331-16.311-.424-59.7-.349l-59.157.101-.102 41.7-.102 41.7H217.6v.976c0 .537-.18 1.088-.4 1.224-.248.153-.4 3.73-.4 9.4s.152 9.247.4 9.4c.22.136.4 1.317.4 2.624 0 1.317.178 2.376.4 2.376.22 0 .4.799.4 1.776s.18 1.888.4 2.024c.22.136.4.867.4 1.624 0 .757.18 1.376.4 1.376.22 0 .4.54.4 1.2 0 .66.18 1.2.4 1.2.22 0 .4.63.4 1.4 0 .77.18 1.4.4 1.4.22 0 .4.45.4 1s.18 1 .4 1c.22 0 .4.63.4 1.4 0 .77.18 1.4.4 1.4.22 0 .4.36.4.8 0 .44.18.8.4.8.22 0 .4.36.4.8 0 .44.18.8.4.8.22 0 .4.274.4.61 0 .769 2.777 6.344 3.249 6.523.193.074.351.439.351.812 0 .373.36.938.8 1.255.44.317.8.857.8 1.2 0 .343.36.883.8 1.2.44.317.8.78.8 1.029 0 .249.54 1.017 1.2 1.708.66.691 1.2 1.373 1.2 1.516 0 .143.54.776 1.2 1.407.66.631 1.2 1.328 1.2 1.55 0 .84 11.724 11.99 12.607 11.99.229 0 .676.36.993.8.317.44.815.8 1.106.8.292 0 .98.45 1.53 1s1.312 1 1.694 1c.381 0 .953.36 1.27.8.317.44.897.8 1.288.8.392 0 .712.18.712.4 0 .22.27.4.6.4.33 0 .6.18.6.4 0 .22.27.4.6.4.33 0 .6.18.6.4 0 .22.27.4.6.4.33 0 .6.18.6.4 0 .22.36.4.8.4.44 0 .8.18.8.4 0 .22.36.4.8.4.44 0 .8.18.8.4 0 .22.272.4.605.4.333 0 1.008.208 1.5.462 1.957 1.012 2.321 1.138 3.29 1.138.553 0 1.005.18 1.005.4 0 .22.54.4 1.2.4.66 0 1.2.18 1.2.4 0 .22.54.4 1.2.4.66 0 1.2.18 1.2.4 0 .22.529.4 1.176.4.647 0 1.288.18 1.424.4.136.22.777.4 1.424.4h1.176v12.4H142.4V101.2h138.4v11.936m66.6-11.536c.136.22.609.4 1.052.4 1.514 0 2.748 2.063 2.748 4.595 0 .993-.18 1.805-.4 1.805-.22 0-.4.25-.4.556 0 .516-3.08 2.244-4 2.244-.92 0-4-1.728-4-2.244 0-.306-.18-.556-.4-.556-.22 0-.4-.9-.4-2s.18-2 .4-2c.22 0 .4-.295.4-.656 0-.847 1.153-1.715 2.3-1.731.495-.007.9-.193.9-.413 0-.22.349-.4.776-.4.427 0 .888.18 1.024.4m-242.2 34.5v11.3l-2-.139c-1.1-.076-2-.301-2-.5 0-.2-2.937-.361-6.6-.361-4.133 0-6.6.149-6.6.4 0 .22-.9.4-2 .4s-2 .18-2 .4c0 .22-.54.4-1.2.4-.66 0-1.2.18-1.2.4 0 .22-.54.4-1.2.4-.66 0-1.2.18-1.2.4 0 .22-.36.4-.8.4-.44 0-.8.18-.8.4 0 .22-.349.4-.776.4-.427 0-.888.18-1.024.4-.136.22-.597.4-1.024.4-.427 0-.776.18-.776.4 0 .22-.32.4-.712.4-.391 0-.971.36-1.288.8-.317.44-.819.8-1.114.8-.296 0-1.381.855-2.412 1.9s-2.369 2.155-2.974 2.468c-.605.312-1.1.684-1.1.827 0 .142-.945 1.275-2.1 2.516-1.155 1.241-2.55 3.119-3.1 4.173-.55 1.054-1.135 1.976-1.3 2.049-.165.074-.3.479-.3.9 0 .422-.18.767-.4.767-.22 0-.4.36-.4.8 0 .44-.18.8-.4.8-.22 0-.4.54-.4 1.2 0 .66-.18 1.2-.4 1.2-.22 0-.4.439-.4.976 0 .537-.18 1.088-.4 1.224-.22.136-.4.687-.4 1.224 0 .537-.18.976-.4.976-.22 0-.4.799-.4 1.776s-.18 1.888-.4 2.024c-.24.149-.4 2.871-.4 6.824 0 4.117.15 6.576.4 6.576.22 0 .4.9.4 2s.18 2 .4 2c.22 0 .4.54.4 1.2 0 .66.18 1.2.4 1.2.22 0 .4.54.4 1.2 0 .66.18 1.2.4 1.2.22 0 .4.45.4 1s.18 1 .4 1c.22 0 .4.36.4.8 0 .44.18.8.4.8.22 0 .4.345.4.767 0 .421.135.826.3.9.165.073.829 1.123 1.476 2.333.647 1.21 1.829 2.83 2.627 3.6.798.77 1.774 1.895 2.17 2.5.395.605.877 1.1 1.07 1.1.194 0 1.449 1.08 2.789 2.4 1.341 1.32 2.692 2.4 3.003 2.4.311 0 .565.147.565.326 0 .448 2.647 1.674 3.614 1.674.432 0 .786.18.786.4 0 .22.36.4.8.4.44 0 .8.18.8.4 0 .22.36.4.8.4.44 0 .8.18.8.4 0 .22.54.4 1.2.4.66 0 1.2.18 1.2.4 0 .22.54.4 1.2.4.66 0 1.2.18 1.2.4 0 .22.9.4 2 .4s2 .18 2 .4c0 .251 2.467.4 6.6.4 3.663 0 6.6-.161 6.6-.361 0-.199.9-.424 2-.5l2-.139v23H82.4v-.976c0-.537-.18-1.088-.4-1.224-.22-.136-.4-.856-.4-1.6 0-.744-.18-1.464-.4-1.6-.22-.136-.4-.867-.4-1.624 0-.757-.18-1.376-.4-1.376-.22 0-.4-.529-.4-1.176 0-.647-.18-1.288-.4-1.424-.22-.136-.4-.687-.4-1.224 0-.537-.18-.976-.4-.976-.22 0-.4-.36-.4-.8 0-.533-.267-.8-.8-.8-.44 0-.8-.18-.8-.4 0-.22-.36-.4-.8-.4-.44 0-.8-.18-.8-.4 0-.22-.324-.4-.72-.4-.396 0-.9-.18-1.12-.4-.579-.579-3.882-.635-4.07-.069-.086.258-.462.469-.835.469-.373 0-.938.36-1.255.8-.317.44-.897.8-1.288.8-.392 0-.712.18-.712.4 0 .22-.32.4-.712.4-.391 0-.971.36-1.288.8-.317.44-.857.8-1.2.8-.343 0-.883.36-1.2.8-.317.44-.897.8-1.288.8-.392 0-.712.205-.712.454 0 .25-3.475-3.035-7.722-7.3-4.247-4.264-8.216-8.166-8.821-8.67-1.071-.892-1.183-2.441-.204-2.817.191-.074.347-.389.347-.7 0-.312.18-.567.4-.567.22 0 .4-.32.4-.712 0-.391.36-.971.8-1.288.44-.317.8-.897.8-1.288 0-.392.18-.712.4-.712.22 0 .4-.27.4-.6 0-.33.18-.6.4-.6.22 0 .4-.27.4-.6 0-.33.18-.6.4-.6.22 0 .4-.278.4-.617 0-.339.361-1.004.802-1.478.538-.577.67-.993.4-1.263-.221-.221-.402-.805-.402-1.298s-.18-1.008-.4-1.144c-.22-.136-.4-.597-.4-1.024 0-.427-.18-.776-.4-.776-.22 0-.4-.36-.4-.8 0-.44-.18-.8-.4-.8-.22 0-.4-.283-.4-.629 0-1.042-1.059-1.771-2.571-1.771-.786 0-1.429-.18-1.429-.4 0-.22-.529-.4-1.176-.4-.647 0-1.288-.18-1.424-.4-.136-.22-.766-.4-1.4-.4-.634 0-1.264-.18-1.4-.4-.136-.22-.867-.4-1.624-.4-.757 0-1.376-.18-1.376-.4 0-.22-.54-.4-1.2-.4h-1.2V176H32c.66 0 1.2-.155 1.2-.345 0-.19 1.035-.465 2.3-.613 2.3-.268 4.487-.831 5.795-1.491.382-.193 1.192-.357 1.8-.364 1.327-.015 2.505-.829 2.505-1.731 0-.361.18-.656.4-.656.22 0 .4-.272.4-.605 0-.333.159-.918.353-1.3 1.056-2.076 1.327-2.923 1.365-4.267.023-.815-.129-1.605-.339-1.755-.209-.15-.634-.765-.944-1.366-.309-.602-.894-1.449-1.299-1.884-.405-.434-.736-1.027-.736-1.318 0-.291-.36-.788-.8-1.105-.44-.317-.8-.897-.8-1.288 0-.392-.18-.712-.4-.712-.22 0-.4-.283-.4-.629 0-.345-.27-.898-.6-1.228-.98-.98-.944-1.024 8.04-9.932 9.396-9.317 8.8-8.947 11.115-6.911.438.385 1.032.7 1.32.7.289 0 .525.152.525.337 0 .186.855.768 1.9 1.295 1.045.526 1.996 1.088 2.114 1.247 1.381 1.871 5.385 2.01 8.905.309.897-.433 1.79-.788 1.985-.788.738 0 1.496-1.189 1.496-2.348 0-.663.18-1.316.4-1.452.22-.136.4-.766.4-1.4 0-.634.18-1.264.4-1.4.22-.136.4-.867.4-1.624 0-.757.18-1.376.4-1.376.22 0 .4-.72.4-1.6 0-.88.18-1.6.4-1.6.22 0 .4-.45.4-1v-1h22.8v11.3m152.4-6.368v4.933l-1.1.565c-.605.31-1.391.881-1.747 1.267-.356.387-.901.703-1.212.703-.31 0-.824.36-1.141.8-.317.44-.857.8-1.2.8-.343 0-.883.36-1.2.8-.317.44-.815.8-1.106.8-.292 0-.938.405-1.436.9-.497.495-1.605 1.44-2.46 2.1-2.04 1.574-8.598 8.208-8.598 8.698 0 .209-.54.885-1.2 1.502-.66.617-1.2 1.337-1.2 1.6 0 .263-.54.983-1.2 1.6-.66.617-1.2 1.291-1.2 1.498 0 .208-.36.704-.8 1.102-.44.398-.8.966-.8 1.262 0 .296-.15.538-.332.538-.183 0-.588.495-.9 1.1-.312.605-.668 1.19-.791 1.3-.458.408-3.177 6.084-3.177 6.632 0 .312-.18.568-.4.568-.22 0-.4.36-.4.8 0 .44-.18.8-.4.8-.22 0-.4.349-.4.776 0 .427-.18.888-.4 1.024-.22.136-.4.777-.4 1.424 0 .647-.18 1.176-.4 1.176-.22 0-.4.54-.4 1.2 0 .66-.18 1.2-.4 1.2-.22 0-.4.54-.4 1.2v1.2H166v-56.8h91.6v4.932m47 7.068c.136.22 1.587.4 3.224.4 1.717 0 2.976.169 2.976.4 0 .22.799.4 1.776.4s1.888.18 2.024.4c.136.22.779.4 1.429.4s1.494.163 1.876.361c.991.516 7.239 2.439 7.923 2.439.314 0 .572.18.572.4 0 .22.45.4 1 .4s1 .18 1 .4c0 .22.36.4.8.4.44 0 .8.18.8.4 0 .22.36.4.8.4.44 0 .8.18.8.4 0 .22.36.4.8.4.44 0 .8.18.8.4 0 .22.36.4.8.4.44 0 .8.18.8.4 0 .22.32.4.712.4.391 0 .971.36 1.288.8.317.44.825.8 1.128.8.303 0 1.055.54 1.672 1.2.617.66 1.247 1.2 1.401 1.2.316 0 3.439 2.695 6.953 6 1.286 1.21 2.723 2.465 3.193 2.788.469.324.853.819.853 1.1 0 .281.72 1.253 1.6 2.16.88.907 1.6 1.857 1.6 2.112 0 .255.36.723.8 1.04.44.317.8.857.8 1.2 0 .343.36.883.8 1.2.44.317.8.886.8 1.265 0 .378.169.792.375.919.206.128.626.723.934 1.324.308.601.95 1.772 1.426 2.604.476.832.865 1.777.865 2.1 0 .323.141.588.313.588.172 0 .562.855.867 1.9.305 1.045.732 2.26.95 2.7.217.44.547 1.113.732 1.495.186.382.338 1.046.338 1.476 0 .43.18.893.4 1.029.22.136.4.777.4 1.424 0 .647.18 1.176.4 1.176.22 0 .4.63.4 1.4 0 .77.18 1.4.4 1.4.22 0 .4.9.4 2s.18 2 .4 2c.233 0 .4 1.333.4 3.2 0 1.867.167 3.2.4 3.2.243 0 .4 1.792.4 4.576 0 2.62-.171 4.682-.4 4.824-.22.136-.4 1.587-.4 3.224 0 1.717-.169 2.976-.4 2.976-.22 0-.4.9-.4 2s-.18 2-.4 2c-.22 0-.4.619-.4 1.376 0 .757-.18 1.488-.4 1.624-.22.136-.4.777-.4 1.424 0 .647-.18 1.176-.4 1.176-.22 0-.4.362-.4.805 0 .443-.18 1.163-.4 1.6-.884 1.757-1.088 2.271-1.62 4.095-.555 1.9-1.18 2.53-1.18 1.188 0-.391-.36-.971-.8-1.288-.44-.317-.8-.857-.8-1.2 0-.343-.36-.883-.8-1.2-.44-.317-.8-.816-.8-1.108 0-.686-5.066-5.722-6.5-6.461-.605-.311-1.1-.716-1.1-.899 0-.182-.36-.332-.8-.332-.44 0-.8-.18-.8-.4 0-.22-.36-.4-.8-.4-.44 0-.8-.18-.8-.4 0-.22-.54-.4-1.2-.4-.66 0-1.2-.18-1.2-.4 0-.22-.36-.4-.8-.4-.44 0-.8-.18-.8-.4 0-.22-.619-.4-1.376-.4-.757 0-1.488-.18-1.624-.4-.136-.22-.867-.4-1.624-.4-.757 0-1.376-.18-1.376-.4 0-.22-.72-.4-1.6-.4-.88 0-1.6-.18-1.6-.4 0-.22-.529-.4-1.176-.4-.647 0-1.288-.18-1.424-.4-.136-.22-.867-.4-1.624-.4-.757 0-1.376-.18-1.376-.4 0-.22-.72-.4-1.6-.4-.88 0-1.6-.18-1.6-.4 0-.22-.619-.4-1.376-.4-.757 0-1.488-.18-1.624-.4-.136-.22-.779-.4-1.429-.4-2.67 0-2.892-.755-.836-2.83 2.601-2.624 4.465-5.008 4.465-5.71 0-.326.135-.653.3-.727.487-.216 2.9-5.181 2.9-5.966 0-.396.18-.831.4-.967.22-.136.4-.946.4-1.8 0-.854.18-1.664.4-1.8.25-.155.4-4.13.4-10.6s-.15-10.445-.4-10.6c-.22-.136-.4-.946-.4-1.8 0-.854-.18-1.664-.4-1.8-.22-.136-.4-.599-.4-1.029 0-.43-.16-1.094-.356-1.476-.196-.382-.764-1.55-1.263-2.595-.499-1.045-1.058-1.9-1.244-1.9-.185 0-.337-.215-.337-.478 0-1.373-6.611-8.722-7.846-8.722-.305 0-.554-.18-.554-.4 0-.22-.36-.4-.8-.4-.44 0-.8-.18-.8-.4 0-.22-.36-.4-.8-.4-.44 0-.8-.18-.8-.4 0-.22-.36-.4-.8-.4-.44 0-.8-.18-.8-.4 0-.22-.36-.4-.8-.4-.44 0-.8-.18-.8-.4 0-.22-.439-.4-.976-.4-.537 0-1.088-.18-1.224-.4-.136-.22-.856-.4-1.6-.4-.744 0-1.464-.18-1.6-.4-.146-.236-2.537-.4-5.824-.4-3.451 0-5.576.152-5.576.4 0 .22-.54.4-1.2.4-.66 0-1.2.18-1.2.4 0 .22-.54.4-1.2.4-.66 0-1.2.18-1.2.4 0 .22-.36.4-.8.4-.44 0-.8.18-.8.4 0 .22-.36.4-.8.4-.44 0-.8.18-.8.4 0 .22-.36.4-.8.4-.44 0-.8.18-.8.4 0 .22-.267.4-.593.4-1.251 0-8.589 7.421-8.602 8.7-.003.275-.185.5-.405.5-.22 0-.4.27-.4.6 0 .33-.18.6-.4.6-.22 0-.4.27-.4.6 0 .33-.18.6-.4.6-.22 0-.4.36-.4.8 0 .44-.18.8-.4.8-.22 0-.4.362-.4.805 0 .443-.208 1.208-.462 1.7-1.037 2.006-1.138 2.348-1.138 3.866 0 .87-.18 1.693-.4 1.829-.249.154-.4 3.996-.4 10.2 0 6.204.151 10.046.4 10.2.22.136.4.946.4 1.8 0 .854.18 1.664.4 1.8.22.136.4.571.4.967 0 .785 2.413 5.75 2.9 5.966.165.074.3.464.3.867 0 .403.135.793.3.867.165.073 1.014 1.033 1.887 2.133s2.171 2.546 2.884 3.214c1.486 1.391.953 2.186-1.466 2.186-.663 0-1.205.18-1.205.4 0 .22-.72.4-1.6.4-.88 0-1.6.18-1.6.4 0 .22-.619.4-1.376.4-.757 0-1.488.18-1.624.4-.136.22-.856.4-1.6.4-.744 0-1.464.18-1.6.4-.136.22-.777.4-1.424.4-.647 0-1.176.18-1.176.4 0 .22-.72.4-1.6.4-.88 0-1.6.18-1.6.4 0 .22-.63.4-1.4.4-.77 0-1.4.18-1.4.4 0 .22-.72.4-1.6.4-.88 0-1.6.18-1.6.4 0 .22-.36.4-.8.4-.44 0-.8.18-.8.4 0 .22-.54.4-1.2.4-.66 0-1.2.18-1.2.4 0 .22-.36.4-.8.4-.44 0-.8.18-.8.4 0 .22-.36.4-.8.4-.44 0-.8.15-.8.332 0 .183-.495.587-1.1.898-1.38.709-6.5 5.826-6.5 6.496 0 .273-.36.757-.8 1.074-.44.317-.8.857-.8 1.2 0 .343-.36.883-.8 1.2-.44.317-.8.897-.8 1.288 0 1.342-.625.712-1.18-1.188-.532-1.824-.736-2.338-1.62-4.095-.22-.437-.4-1.157-.4-1.6 0-.443-.18-.805-.4-.805-.22 0-.4-.529-.4-1.176 0-.647-.18-1.288-.4-1.424-.22-.136-.4-.867-.4-1.624 0-.757-.18-1.376-.4-1.376-.22 0-.4-.9-.4-2s-.18-2-.4-2c-.231 0-.4-1.259-.4-2.976 0-1.637-.18-3.088-.4-3.224-.229-.142-.4-2.204-.4-4.824 0-2.784.157-4.576.4-4.576.233 0 .4-1.333.4-3.2 0-1.867.167-3.2.4-3.2.22 0 .4-.9.4-2s.18-2 .4-2c.22 0 .4-.63.4-1.4 0-.77.18-1.4.4-1.4.22 0 .4-.529.4-1.176 0-.647.18-1.288.4-1.424.22-.136.4-.599.4-1.029 0-.43.18-1.139.4-1.576.884-1.757 1.088-2.271 1.62-4.095.305-1.045.695-1.9.867-1.9.172 0 .313-.36.313-.8 0-.44.18-.8.4-.8.22 0 .4-.36.4-.8 0-.44.136-.8.302-.8.167 0 .56-.585.874-1.3.314-.715 1.168-2.236 1.898-3.381.729-1.144 1.326-2.229 1.326-2.411 0-.182.36-.591.8-.908.44-.317.8-.785.8-1.04s.72-1.205 1.6-2.112c.88-.907 1.6-1.879 1.6-2.16 0-.281.387-.776.861-1.1.473-.323 1.782-1.488 2.908-2.588s2.723-2.507 3.548-3.127c.826-.62 1.939-1.565 2.474-2.1.535-.535 1.089-.973 1.23-.973.142 0 .762-.54 1.379-1.2.617-.66 1.369-1.2 1.672-1.2.303 0 .811-.36 1.128-.8.317-.44.897-.8 1.288-.8.392 0 .712-.18.712-.4 0-.22.36-.4.8-.4.44 0 .8-.18.8-.4 0-.22.36-.4.8-.4.44 0 .8-.18.8-.4 0-.22.36-.4.8-.4.44 0 .8-.18.8-.4 0-.22.36-.4.8-.4.44 0 .8-.18.8-.4 0-.22.45-.4 1-.4s1-.18 1-.4c0-.22.258-.4.572-.4.684 0 6.932-1.923 7.923-2.439.382-.198 1.226-.361 1.876-.361.65 0 1.293-.18 1.429-.4.136-.22 1.036-.4 2-.4s1.864-.18 2-.4c.136-.22 1.486-.4 3-.4s2.864-.18 3-.4c.142-.23 2.263-.4 5-.4s4.858.17 5 .4M97.2 160c0 .22.9.4 2 .4s2 .18 2 .4c0 .22.54.4 1.2.4.66 0 1.2.18 1.2.4 0 .22.36.4.8.4.792 0 .8.267.8 26.2s-.008 26.2-.8 26.2c-.44 0-.8.18-.8.4 0 .22-.54.4-1.2.4-.66 0-1.2.18-1.2.4 0 .22-.799.4-1.776.4s-1.888.18-2.024.4c-.136.22-1.497.4-3.024.4-1.584 0-2.776-.172-2.776-.4 0-.22-.799-.4-1.776-.4s-1.888-.18-2.024-.4c-.136-.22-.676-.4-1.2-.4-.524 0-1.064-.18-1.2-.4-.136-.22-.687-.4-1.224-.4-.537 0-.976-.18-.976-.4 0-.22-.36-.4-.8-.4-.44 0-.8-.18-.8-.4 0-.22-.278-.4-.617-.4-.339 0-1.003-.36-1.475-.8-.472-.44-1.095-.8-1.383-.8-.289 0-.525-.168-.525-.373s-.357-.486-.793-.625c-.894-.284-4.007-3.235-4.007-3.799 0-.202-.45-.817-1-1.367s-1-1.278-1-1.618c0-.34-.18-.618-.4-.618-.22 0-.4-.36-.4-.8 0-.44-.18-.8-.4-.8-.22 0-.4-.36-.4-.8 0-.44-.18-.8-.4-.8-.22 0-.4-.439-.4-.976 0-.537-.18-1.088-.4-1.224-.22-.136-.4-.676-.4-1.2 0-.524-.18-1.064-.4-1.2-.22-.136-.4-1.047-.4-2.024 0-.977-.18-1.776-.4-1.776-.228 0-.4-1.192-.4-2.776 0-1.527.18-2.888.4-3.024.22-.136.4-1.047.4-2.024 0-.977.18-1.776.4-1.776.22 0 .4-.54.4-1.2 0-.66.18-1.2.4-1.2.22 0 .4-.54.4-1.2 0-.66.18-1.2.4-1.2.22 0 .4-.36.4-.8 0-.44.146-.8.325-.8.179 0 .573-.63.875-1.4.302-.77.657-1.4.788-1.4.132 0 .545-.518.919-1.151s1.223-1.732 1.887-2.442c.663-.71 1.206-1.453 1.206-1.649 0-.197.32-.358.712-.358.391 0 .971-.36 1.288-.8.317-.44.857-.8 1.2-.8.343 0 .883-.36 1.2-.8.317-.44.897-.8 1.288-.8.392 0 .712-.18.712-.4 0-.22.36-.4.8-.4.44 0 .8-.18.8-.4 0-.22.439-.4.976-.4.537 0 1.088-.18 1.224-.4.136-.22.676-.4 1.2-.4.524 0 1.064-.18 1.2-.4.136-.22 1.047-.4 2.024-.4.977 0 1.776-.18 1.776-.4 0-.229 1.2-.4 2.8-.4 1.6 0 2.8.171 2.8.4m204.8 0c0 .22.72.4 1.6.4.88 0 1.6.18 1.6.4 0 .22.36.4.8.4.44 0 .8.18.8.4 0 .22.32.4.712.4.391 0 .971.36 1.288.8.317.44.723.8.902.8.509 0 2.837 2.487 3.466 3.703.312.603.717 1.097.9 1.097.182 0 .332.36.332.8 0 .44.18.8.4.8.22 0 .4.439.4.976 0 .537.18 1.088.4 1.224.25.154.4 4.071.4 10.424 0 6.517-.144 10.176-.4 10.176-.22 0-.4.45-.4 1s-.18 1-.4 1c-.22 0-.4.278-.4.617 0 .339-.36 1.003-.8 1.475-.44.472-.8 1.052-.8 1.288 0 .237-.484.788-1.075 1.225-.591.437-1.665 1.38-2.387 2.095-.721.715-1.587 1.3-1.925 1.3-.337 0-.613.18-.613.4 0 .22-.283.4-.629.4-1.636 0-1.771.761-1.771 10 0 7.017.115 8.972.555 9.412.592.592 7.745 2.188 9.808 2.188.68 0 1.237.18 1.237.4 0 .22.72.4 1.6.4.88 0 1.6.18 1.6.4 0 .22.72.4 1.6.4.88 0 1.6.18 1.6.4 0 .22.72.4 1.6.4.88 0 1.6.18 1.6.4 0 .22.63.4 1.4.4.77 0 1.4.18 1.4.4 0 .22.72.4 1.6.4.88 0 1.6.18 1.6.4 0 .22.72.4 1.6.4.88 0 1.6.18 1.6.4 0 .22.529.4 1.176.4.647 0 1.288.18 1.424.4.136.22.867.4 1.624.4.757 0 1.376.18 1.376.4 0 .22.36.4.8.4.44 0 .8.18.8.4 0 .22.236.4.525.4.288 0 .911.36 1.383.8.472.44.961.8 1.086.8.513 0 3.806 3.625 3.806 4.189 0 .336.135.612.3.614.406.004 1.3 1.983 1.3 2.877 0 .396.18.72.4.72.244 0 .4 1.802.4 4.607v4.608l-2.593 2.592c-1.426 1.426-2.734 2.593-2.907 2.593-.313 0-3.29 2.318-5.407 4.211-.609.544-1.308.989-1.553.989-.245 0-.737.316-1.093.703-.356.386-1.142.957-1.747 1.267-.605.311-1.1.715-1.1.898 0 .182-.36.332-.8.332-.44 0-.8.18-.8.4 0 .22-.36.4-.8.4-.44 0-.8.18-.8.4 0 .22-.36.4-.8.4-.44 0-.8.18-.8.4 0 .22-.36.4-.8.4-.44 0-.8.18-.8.4 0 .22-.45.4-1 .4s-1 .18-1 .4c0 .22-.36.4-.8.4-.44 0-.8.18-.8.4 0 .22-.54.4-1.2.4-.66 0-1.2.18-1.2.4 0 .22-.54.4-1.2.4-.66 0-1.2.18-1.2.4 0 .22-.54.4-1.2.4-.66 0-1.2.18-1.2.4 0 .22-.72.4-1.6.4-.88 0-1.6.18-1.6.4 0 .22-.774.4-1.72.4s-1.941.221-2.211.491c-.703.703-21.035.703-21.738 0-.27-.27-1.265-.491-2.211-.491s-1.72-.18-1.72-.4c0-.22-.72-.4-1.6-.4-.88 0-1.6-.18-1.6-.4 0-.22-.54-.4-1.2-.4-.66 0-1.2-.18-1.2-.4 0-.22-.54-.4-1.2-.4-.66 0-1.2-.18-1.2-.4 0-.22-.54-.4-1.2-.4-.66 0-1.2-.18-1.2-.4 0-.22-.36-.4-.8-.4-.44 0-.8-.18-.8-.4 0-.22-.45-.4-1-.4s-1-.18-1-.4c0-.22-.36-.4-.8-.4-.44 0-.8-.18-.8-.4 0-.22-.36-.4-.8-.4-.44 0-.8-.18-.8-.4 0-.22-.36-.4-.8-.4-.44 0-.8-.18-.8-.4 0-.22-.32-.4-.712-.4-.391 0-.971-.36-1.288-.8-.317-.44-.857-.8-1.2-.8-.343 0-.883-.36-1.2-.8-.317-.44-.804-.8-1.081-.8-.278 0-1.003-.445-1.612-.989-2.117-1.893-5.094-4.211-5.407-4.211-.173 0-1.481-1.167-2.907-2.593L248 252.415v-4.608c0-2.805.156-4.607.4-4.607.22 0 .4-.324.4-.72 0-.894.894-2.873 1.3-2.877.165-.002.3-.278.3-.614 0-.632 3.323-4.189 3.914-4.189.184 0 .684-.325 1.111-.722.426-.398 1.36-.981 2.075-1.298.715-.316 1.3-.711 1.3-.878 0-.166.619-.302 1.376-.302.757 0 1.488-.18 1.624-.4.136-.22.777-.4 1.424-.4.647 0 1.176-.18 1.176-.4 0-.22.72-.4 1.6-.4.88 0 1.6-.18 1.6-.4 0-.22.72-.4 1.6-.4.88 0 1.6-.18 1.6-.4 0-.22.619-.4 1.376-.4.757 0 1.488-.18 1.624-.4.136-.22.867-.4 1.624-.4.757 0 1.376-.18 1.376-.4 0-.22.72-.4 1.6-.4.88 0 1.6-.18 1.6-.4 0-.22.72-.4 1.6-.4.88 0 1.6-.18 1.6-.4 0-.22.557-.4 1.237-.4 2.063 0 9.216-1.596 9.808-2.188.44-.44.555-2.395.555-9.412 0-9.239-.135-10-1.771-10-.346 0-.629-.18-.629-.4 0-.22-.193-.4-.429-.4-.235 0-.657-.225-.936-.5-.28-.275-1.101-.95-1.825-1.5-2.01-1.526-2.566-2.103-3.18-3.3-.311-.605-.715-1.1-.898-1.1-.182 0-.332-.36-.332-.8 0-.44-.18-.8-.4-.8-.22 0-.4-.45-.4-1s-.18-1-.4-1c-.256 0-.4-3.525-.4-9.776 0-6.087.151-9.87.4-10.024.22-.136.4-.687.4-1.224 0-.537.18-.976.4-.976.22 0 .4-.36.4-.8 0-.44.18-.8.4-.8.22 0 .4-.285.4-.634 0-.75 5.574-6.556 6.3-6.562.275-.002.5-.184.5-.404 0-.22.36-.4.8-.4.44 0 .8-.18.8-.4 0-.22.72-.4 1.6-.4.88 0 1.6-.18 1.6-.4 0-.222 1.067-.4 2.4-.4s2.4.178 2.4.4m-149.91 51.7l.11 6.5 27.3.103 27.3.103V205.2h-54.82l.11 6.5m.179 16.964c-.148.148-.269 3.119-.269 6.603v6.333h54.82l-.11-6.5-.11-6.5-27.031-.103c-14.866-.056-27.151.019-27.3.167M152 258.6v6.6h54.8V252H152v6.6m-79.87 17.155c-.918.248-1.803.585-1.966.748-.164.163-.627.297-1.031.297-.403 0-.733.18-.733.4 0 .22-.294.4-.653.4-.359 0-.944.317-1.3.705-.356.388-1.324 1.153-2.152 1.7-.827.547-1.726 1.49-1.997 2.095-.271.605-.601 1.1-.733 1.1-.131 0-.622.765-1.09 1.7-3.681 7.352-2.405 16.744 2.925 21.533 2.142 1.924 2.773 2.367 3.373 2.367.358 0 .91.36 1.227.8.317.44.897.8 1.288.8.675 0 .712 1.268.712 24.2v24.2h14v-24.2c0-23.933.009-24.2.8-24.2.44 0 .8-.18.8-.4 0-.22.225-.4.5-.4.713-.001 5.093-3.512 5.392-4.322.137-.373.361-.768.498-.878.654-.526 2.01-2.795 2.01-3.362 0-.351.18-.638.4-.638.22 0 .4-.529.4-1.176 0-.647.18-1.288.4-1.424.221-.136.4-1.93.4-4 0-2.07-.179-3.864-.4-4-.22-.136-.4-.777-.4-1.424 0-.647-.18-1.176-.4-1.176-.22 0-.4-.36-.4-.8 0-.44-.18-.8-.4-.8-.22 0-.4-.36-.4-.8 0-.44-.15-.8-.332-.8-.183 0-.585-.495-.893-1.1-.857-1.685-4.846-5.278-5.875-5.293-.275-.004-.5-.187-.5-.407 0-.22-.33-.4-.733-.4-.404 0-.862-.129-1.02-.286-1.167-1.167-8.456-1.639-11.717-.759m80.359-.219c-.386.246-.483 1.866-.4 6.694l.111 6.37h54.4l.111-6.37c.083-4.828-.014-6.448-.4-6.694-.281-.178-12.391-.324-26.911-.324-14.52 0-26.63.146-26.911.324M78.2 289.2c.136.22.519.4.852.4.699 0 1.748.943 1.748 1.571 0 .236.18.429.4.429 1.973 0-.513 6.351-2.5 6.387-.385.007-.7.193-.7.413 0 .22-.45.4-1 .4s-1-.18-1-.4c0-.22-.315-.406-.7-.413-2.429-.044-3.863-4.545-2.238-7.025 1.047-1.599 4.506-2.785 5.138-1.762m226.2 57c0 6.8-.143 10.6-.4 10.6-.22 0-.4.324-.4.72 0 .894-.894 2.873-1.3 2.877-.165.002-.3.273-.3.603 0 .33-.18.6-.4.6-.22 0-.4.186-.4.413 0 .581-2.39 2.875-3.703 3.555-.603.312-1.097.717-1.097.9 0 .182-.36.332-.8.332-.44 0-.8.18-.8.4 0 .22-.36.4-.8.4-.44 0-.8.18-.8.4 0 .22-.63.4-1.4.4-.77 0-1.4.18-1.4.4 0 .265-26.467.4-78.6.4-52.133 0-78.6-.135-78.6-.4 0-.22-.72-.4-1.6-.4-.88 0-1.6-.18-1.6-.4 0-.22-.36-.4-.8-.4-.44 0-.8-.18-.8-.4 0-.22-.32-.4-.712-.4-.391 0-.971-.36-1.288-.8-.317-.44-.749-.8-.96-.8-1.2 0-5.44-5.953-5.44-7.638 0-.419-.18-.762-.4-.762-.257 0-.4-3.8-.4-10.6v-10.6h185.2v10.6m-163.724-.343c-.152.152-.276 3.131-.276 6.619v6.343l6.9-.11 6.9-.109v-12.8l-6.624-.109c-3.643-.06-6.748.015-6.9.166m46.794.007c-.149.148-.27 3.119-.27 6.603v6.333h49.22l-.11-6.5-.11-6.5-24.23-.103c-13.327-.057-24.352.018-24.5.167m82.006-.007c-.152.152-.276 3.126-.276 6.61v6.333h14.02l-.11-6.5-.11-6.5-6.624-.109c-3.643-.06-6.748.015-6.9.166M70 375.8v6.6h14v-13.2H70v6.6" fill="#04d46c" fill-rule="evenodd"/></svg>