<svg xmlns="http://www.w3.org/2000/svg" width="400" height="400"><path d="M3.414 75.537c-1.57.878-1.886 1.209-2.733 2.863-.684 1.335-.712 5.095-.599 80.655L.2 238.31l1.8 1.645c1.438 1.314 2.101 1.645 3.3 1.645.825 0 1.5.18 1.5.4 0 .263 9.2.4 26.8.4s26.8-.137 26.8-.4c0-.22.462-.4 1.026-.4 1.635 0 4.574-2.045 4.574-3.182 0-.23.18-.418.4-.418.22 0 .4-.349.4-.776 0-.427.18-.888.4-1.024.22-.136.4-.766.4-1.4 0-.634.18-1.264.4-1.4.22-.136.4-.597.4-1.024 0-.427.096-.776.213-.776.283 0 2.987 2.71 2.987 2.993 0 .529 17.35 18.153 19.944 20.26.713.579 2.174 1.884 3.247 2.9s2.126 1.847 2.34 1.847c.213 0 1.307.9 2.43 2 1.124 1.1 2.236 2 2.472 2 .237 0 1.121.72 1.967 1.6.846.88 1.703 1.6 1.905 1.6.202 0 1.19.765 2.194 1.7 2.62 2.438 5.456 4.84 6.227 5.273.784.44 1.369.906 2.675 2.127.529.495 1.129.9 1.333.9.203 0 1.111.72 2.018 1.6.907.88 1.826 1.6 2.042 1.6.216 0 1.071.629 1.899 1.399 3.117 2.892 4.674 4.201 4.999 4.201.184 0 .965.63 1.735 1.4.77.77 1.565 1.4 1.768 1.4.203 0 .8.432 1.328.959.527.528 1.568 1.275 2.313 1.66.745.385 1.833 1.213 2.419 1.84.587.628 1.282 1.141 1.545 1.141.263 0 .983.54 1.6 1.2.617.66 1.247 1.2 1.4 1.2.153 0 .783.54 1.4 1.2.617.66 1.337 1.2 1.6 1.2.263 0 .983.54 1.6 1.2.617.66 1.292 1.2 1.501 1.2.209 0 .945.54 1.636 1.2.691.66 1.402 1.2 1.581 1.2.179 0 1.013.63 1.854 1.4.841.77 1.662 1.4 1.824 1.4.163 0 .905.537 1.65 1.194.745.656 1.539 1.196 1.766 1.2.226.003.671.366.988.806.317.44.809.8 1.092.8.283 0 1.08.54 1.771 1.2.691.66 1.459 1.2 1.708 1.2.249 0 .712.36 1.029.8.317.44.831.8 1.141.8.311 0 .856.316 1.212.703.356.386 1.142.957 1.747 1.267.605.311 1.1.715 1.1.898 0 .182.36.332.8.332.44 0 .8.18.8.4 0 .22.36.4.8.4.44 0 .8.136.8.302 0 .167.585.538 1.3.827.715.288 1.613.692 1.995.897.382.206.967.374 1.3.374.333 0 .605.18.605.4 0 .22.349.4.776.4.427 0 .888.18 1.024.4.136.22.687.4 1.224.4.537 0 .976.16.976.356 0 .196.585.458 1.3.581 3.251.562 4.119.804 4.385 1.218.82 1.278 23.915.319 23.915-.992 0-.145.518-.367 1.152-.493.633-.127 1.405-.465 1.715-.75 1.538-1.418 4.864-2.128 5.203-1.111.185.556 12.318.563 12.874.007.229-.229.92-.416 1.536-.416s1.12-.18 1.12-.4c0-.22.343-.4.762-.4.816 0 4.15-1.601 4.371-2.1.074-.165.397-.3.719-.3.321 0 1.034-.45 1.584-1s1.164-1 1.365-1c.511 0 6.799-6.273 6.799-6.783a.41.41 0 01.4-.417c.22 0 .4-.255.4-.567 0-.311.135-.626.3-.7.165-.073.603-.673.974-1.333l.674-1.2 6.026-.11c3.568-.066 6.026-.27 6.026-.5 0-.215.799-.39 1.776-.39s1.888-.18 2.024-.4c.136-.22.597-.4 1.024-.4.427 0 .776-.18.776-.4 0-.22.45-.4 1-.4s1-.18 1-.4c0-.22.36-.4.8-.4.44 0 .8-.18.8-.4 0-.22.36-.4.8-.4.44 0 .8-.15.8-.332 0-.183.495-.588 1.1-.9.605-.313 1.449-.883 1.875-1.268.427-.385.927-.7 1.111-.7.492 0 3.746-3.338 4.335-4.447.278-.524.837-1.188 1.242-1.476.406-.287.737-.782.737-1.1 0-.317.18-.577.4-.577.22 0 .4-.234.4-.52 0-2.049.91-2.674 3.9-2.677 1.665-.002 2.9-.173 2.9-.403 0-.22.72-.4 1.6-.4.88 0 1.6-.18 1.6-.4 0-.22.54-.4 1.2-.4.66 0 1.2-.18 1.2-.4 0-.22.36-.4.8-.4.44 0 .8-.18.8-.4 0-.22.36-.4.8-.4.44 0 .8-.18.8-.4 0-.22.27-.4.6-.4.33 0 .6-.18.6-.4 0-.22.178-.4.395-.4.677 0 5.633-4.607 7.767-7.22 1.142-1.399 3.038-5.156 3.038-6.021 0-.417.18-.759.4-.759.22 0 .4-.54.4-1.2 0-.66.18-1.2.4-1.2.248 0 .4-2.2.4-5.8 0-5.098.079-5.8.653-5.8.359 0 .944-.316 1.3-.703.356-.386 1.142-.957 1.747-1.267.605-.311 1.1-.715 1.1-.898 0-.182.23-.332.512-.332.281 0 .771-.36 1.088-.8.317-.44.857-.8 1.2-.8.343 0 .883-.36 1.2-.8.317-.44.897-.8 1.288-.8.392 0 .712-.18.712-.4 0-.22.135-.399.3-.397.401.004 1.3 1.978 1.3 2.853 0 .383.18.808.4.944.22.136.4.777.4 1.424 0 .647.18 1.176.4 1.176.22 0 .4.36.4.8 0 .44.18.8.4.8.22 0 .4.294.4.653 0 .714 1.056 1.745 3.042 2.973 1.245.77 2.001.787 29.818.682l28.54-.108 1.691-1.2c.931-.66 1.696-1.348 1.7-1.529.005-.18.279-.598.609-.928.912-.912.912-158.974 0-159.886-.33-.33-.6-.716-.6-.857 0-3.63-19.627-4.026-48.8-.984-2.09.218-4.925.499-6.3.624-1.375.126-2.5.393-2.5.594 0 .201-1.069.366-2.376.366s-2.488.18-2.624.4c-.136.22-1.306.4-2.6.4s-2.464.18-2.6.4c-.136.22-1.036.4-2 .4s-1.852.161-1.974.358c-.208.336-1.237.548-5.326 1.095-.935.125-1.7.389-1.7.587 0 .198-.9.36-2 .36s-2 .18-2 .4c0 .22-.619.4-1.376.4-.757 0-1.488.18-1.624.4-.136.22-.777.4-1.424.4-.647 0-1.176.18-1.176.4 0 .22-.63.4-1.4.4-.77 0-1.4.18-1.4.4 0 .22-.72.4-1.6.4-.88 0-1.6.18-1.6.4 0 .22-.54.4-1.2.4-.66 0-1.2.18-1.2.4 0 .22-.54.4-1.2.4-.66 0-1.2.18-1.2.4 0 .22-.54.4-1.2.4-.66 0-1.2.18-1.2.4 0 .22-.54.4-1.2.4-.66 0-1.2.18-1.2.4 0 .22-.36.4-.8.4-.44 0-.8.18-.8.4 0 .22-.45.4-1 .4s-1 .18-1 .4c0 .22-.349.4-.776.4-.427 0-.888.18-1.024.4-.136.22-.658.4-1.16.4-1.013 0-4.24 2.915-4.24 3.831 0 .313-.18.569-.4.569-.229 0-.4 1.2-.4 2.8v2.8H282c-.66 0-1.2-.18-1.2-.4 0-.22-.36-.4-.8-.4-.44 0-.8-.18-.8-.4 0-.22-.54-.4-1.2-.4-.66 0-1.2-.18-1.2-.4 0-.22-.36-.4-.8-.4-.44 0-.8-.18-.8-.4 0-.22-.439-.4-.976-.4-.537 0-1.088-.18-1.224-.4-.136-.22-.597-.4-1.024-.4-.427 0-.776-.18-.776-.4 0-.22-.45-.4-1-.4s-1-.147-1-.328c0-.18-.9-.572-2-.872-1.1-.3-2-.66-2-.8s-.9-.5-2-.8c-1.1-.3-2-.654-2-.787 0-.134-1.17-.596-2.6-1.028-1.43-.432-2.6-.92-2.6-1.085 0-.165-.349-.3-.776-.3-.427 0-.888-.18-1.024-.4-.136-.22-.687-.4-1.224-.4-.537 0-.976-.18-.976-.4 0-.22-.36-.4-.8-.4-.44 0-.8-.18-.8-.4 0-.22-.36-.4-.8-.4-.44 0-.8-.18-.8-.4 0-.22-.54-.4-1.2-.4-.66 0-1.2-.18-1.2-.4 0-.22-.36-.4-.8-.4-.44 0-.8-.18-.8-.4 0-.22-.36-.4-.8-.4-.44 0-.8-.18-.8-.4 0-.22-.343-.4-.762-.4-.659 0-1.827-.486-4.933-2.05-.382-.193-.967-.35-1.3-.35-.333 0-.605-.18-.605-.4 0-.22-.349-.4-.776-.4-.427 0-.888-.18-1.024-.4-.136-.22-.687-.4-1.224-.4-.537 0-.976-.18-.976-.4 0-.22-.349-.4-.776-.4-.427 0-.888-.18-1.024-.4-.136-.22-.676-.4-1.2-.4-.524 0-1.064-.18-1.2-.4-.136-.22-.687-.4-1.224-.4-.537 0-.976-.18-.976-.4 0-.22-.619-.4-1.376-.4-.757 0-1.488-.18-1.624-.4-.136-.22-.856-.4-1.6-.4-.744 0-1.452-.161-1.574-.358-.852-1.378-23.478-2.15-24.782-.846-.222.222-.998.404-1.724.404s-1.32.18-1.32.4c0 .22-.542.4-1.205.4s-1.563.18-2 .4l-1.59.8c-.437.22-1.157.4-1.6.4-.443 0-.805.18-.805.4 0 .22-.36.4-.8.4-.44 0-.8.18-.8.4 0 .22-.36.4-.8.4-.44 0-.8.18-.8.4 0 .22-.272.4-.605.4-.556 0-2.119.723-2.595 1.201-.11.11-.74.469-1.4.797-.66.328-1.491.913-1.847 1.299-.356.387-.901.703-1.212.703-.31 0-.824.36-1.141.8-.317.44-.857.8-1.2.8-.343 0-.883.36-1.2.8-.317.44-.825.8-1.128.8-.303 0-1.055.54-1.672 1.2l-1.121 1.2-32.739.001H100.2l.121-5.577c.135-6.248-.495-8.07-3.291-9.509-.677-.349-1.521-.967-1.877-1.374-.356-.408-.941-.741-1.3-.741-.359 0-.653-.18-.653-.4 0-.22-.36-.4-.8-.4-.44 0-.8-.18-.8-.4 0-.22-.27-.4-.6-.4-.33 0-.6-.18-.6-.4 0-.22-.349-.4-.776-.4-.427 0-.888-.18-1.024-.4-.136-.22-.687-.4-1.224-.4-.537 0-.976-.18-.976-.4 0-.22-.349-.4-.776-.4-.427 0-.888-.18-1.024-.4-.136-.22-.676-.4-1.2-.4-.524 0-1.064-.18-1.2-.4-.136-.22-.867-.4-1.624-.4-.757 0-1.376-.18-1.376-.4 0-.22-.72-.4-1.6-.4-.88 0-1.6-.18-1.6-.4 0-.22-.63-.4-1.4-.4-.77 0-1.4-.18-1.4-.4 0-.22-.619-.4-1.376-.4-.757 0-1.488-.18-1.624-.4-.136-.22-.957-.4-1.824-.4-.867 0-1.576-.18-1.576-.4 0-.22-.889-.4-1.976-.4s-2.088-.18-2.224-.4c-.136-.22-1.126-.4-2.2-.4-1.074 0-2.064-.18-2.2-.4-.136-.22-1.126-.4-2.2-.4-1.074 0-2.064-.18-2.2-.4-.136-.22-1.396-.4-2.8-.4s-2.664-.18-2.8-.4c-.136-.22-1.497-.4-3.024-.4s-2.776-.162-2.776-.359c0-.197-1.485-.465-3.3-.595-1.815-.13-5.01-.417-7.1-.639-12.635-1.341-26.619-1.571-28.586-.47M23.2 93.6c0 .238 1.525.4 3.776.4 2.087 0 3.887.179 4.024.4.136.22 1.767.4 3.624.4 1.984 0 3.376.165 3.376.4 0 .229 1.2.4 2.8.4 1.6 0 2.8.171 2.8.4 0 .226 1.133.4 2.6.4s2.6.174 2.6.4c0 .229 1.2.4 2.8.4 1.6 0 2.8.171 2.8.4 0 .22.9.4 2 .4s2 .18 2 .4c0 .22.81.4 1.8.4s1.8.18 1.8.4c0 .22.799.4 1.776.4s1.888.18 2.024.4c.136.22.946.4 1.8.4.854 0 1.664.18 1.8.4.136.22.856.4 1.6.4.744 0 1.464.18 1.6.4.136.22.867.4 1.624.4.757 0 1.376.18 1.376.4 0 .22.439.4.976.4.537 0 1.088.18 1.224.4.136.22.687.4 1.224.4.537 0 .976.18.976.4 0 .22.36.4.8.4.711 0 .8.267.8 2.4 0 1.333-.178 2.4-.4 2.4-.22 0-.4.979-.4 2.176s-.18 2.288-.4 2.424c-.22.136-.4 1.216-.4 2.4s-.18 2.264-.4 2.4c-.22.136-.4 1.036-.4 2s-.18 1.864-.4 2c-.22.136-.4 1.047-.4 2.024 0 .977-.18 1.776-.4 1.776-.22 0-.4.799-.4 1.776s-.18 1.888-.4 2.024c-.22.136-.4 1.036-.4 2s-.18 1.864-.4 2c-.22.136-.4.678-.4 1.204 0 .526-.27 1.994-.6 3.261-.33 1.266-.6 2.895-.6 3.619 0 .724-.18 1.316-.4 1.316-.22 0-.4.81-.4 1.8s-.18 1.8-.4 1.8c-.22 0-.4.72-.4 1.6 0 .88-.18 1.6-.4 1.6-.22 0-.4.72-.4 1.6 0 .88-.18 1.6-.4 1.6-.22 0-.4.72-.4 1.6 0 .88-.18 1.6-.4 1.6-.22 0-.4.54-.4 1.2 0 .66-.18 1.2-.4 1.2-.22 0-.4.619-.4 1.376 0 .757-.18 1.488-.4 1.624-.22.136-.4.867-.4 1.624 0 .757-.18 1.376-.4 1.376-.22 0-.4.72-.4 1.6 0 .88-.18 1.6-.4 1.6-.22 0-.4.72-.4 1.6 0 .88-.18 1.6-.4 1.6-.22 0-.4.54-.4 1.2 0 .66-.18 1.2-.4 1.2-.22 0-.4.63-.4 1.4 0 .77-.18 1.4-.4 1.4-.22 0-.4.529-.4 1.176 0 .647-.18 1.288-.4 1.424-.22.136-.4.867-.4 1.624 0 .757-.18 1.376-.4 1.376-.22 0-.4.54-.4 1.2 0 .66-.18 1.2-.4 1.2-.22 0-.4.619-.4 1.376 0 .757-.18 1.488-.4 1.624-.22.136-.4.777-.4 1.424 0 .647-.18 1.176-.4 1.176-.22 0-.4.542-.4 1.205s-.158 1.518-.351 1.9c-.584 1.156-1.249 3.499-1.249 4.4 0 .466-.167.951-.372 1.078-.205.126-.495 1.217-.646 2.423-.151 1.207-.433 2.194-.628 2.194s-.354.72-.354 1.6c0 .88-.18 1.6-.4 1.6-.22 0-.4.439-.4.976 0 .537-.18 1.088-.4 1.224-.22.136-.4.687-.4 1.224 0 .537-.18.976-.4.976-.22 0-.4.529-.4 1.176 0 .647-.18 1.288-.4 1.424-.22.136-.4.867-.4 1.624 0 .757-.18 1.376-.4 1.376-.22 0-.4.54-.4 1.2 0 .66-.18 1.2-.4 1.2-.22 0-.4.54-.4 1.2 0 .66-.18 1.2-.4 1.2-.22 0-.4.463-.4 1.029 0 2.202.254 2.171-17.771 2.171H17.6V93.2h2.8c1.6 0 2.8.171 2.8.4M382.4 175v66.2h-16.629c-18.025 0-17.771.031-17.771-2.171 0-.566-.18-1.029-.4-1.029-.22 0-.4-.54-.4-1.2 0-.66-.18-1.2-.4-1.2-.22 0-.4-.54-.4-1.2 0-.66-.18-1.2-.4-1.2-.22 0-.4-.54-.4-1.2 0-.66-.18-1.2-.4-1.2-.22 0-.4-.54-.4-1.2 0-.66-.18-1.2-.4-1.2-.22 0-.4-.54-.4-1.2 0-.66-.18-1.2-.4-1.2-.22 0-.4-.45-.4-1s-.18-1-.4-1c-.22 0-.4-.54-.4-1.2 0-.66-.162-1.2-.361-1.2-.198 0-.486-1.08-.639-2.401-.153-1.32-.441-2.501-.639-2.623-.199-.123-.361-.663-.361-1.2 0-.537-.18-.976-.4-.976-.22 0-.4-.439-.4-.976 0-.537-.18-1.088-.4-1.224-.22-.136-.4-.676-.4-1.2 0-.524-.18-1.064-.4-1.2-.22-.136-.4-.687-.4-1.224 0-.537-.18-.976-.4-.976-.22 0-.4-.54-.4-1.2 0-.66-.18-1.2-.4-1.2-.22 0-.4-.54-.4-1.2 0-.66-.18-1.2-.4-1.2-.22 0-.4-.362-.4-.805 0-.443-.18-1.163-.4-1.6l-.8-1.59c-.22-.437-.4-1.157-.4-1.6 0-.443-.18-.805-.4-.805-.22 0-.4-.54-.4-1.2 0-.66-.18-1.2-.4-1.2-.22 0-.4-.45-.4-1s-.18-1-.4-1c-.22 0-.4-.54-.4-1.2 0-.66-.18-1.2-.4-1.2-.22 0-.4-.54-.4-1.2 0-.66-.18-1.2-.4-1.2-.22 0-.4-.54-.4-1.2 0-.66-.18-1.2-.4-1.2-.22 0-.4-.439-.4-.976 0-.537-.18-1.088-.4-1.224-.22-.136-.4-.597-.4-1.024 0-.427-.18-.776-.4-.776-.22 0-.4-.54-.4-1.2 0-.66-.18-1.2-.4-1.2-.22 0-.4-.45-.4-1s-.18-1-.4-1c-.22 0-.4-.36-.4-.8 0-.44-.18-.8-.4-.8-.22 0-.4-.396-.4-.88 0-1.233-1.312-5.52-1.689-5.52-.171 0-.311-.439-.311-.976 0-.537-.144-1.066-.321-1.175-.176-.109-.569-1.11-.872-2.224-.303-1.114-.699-2.025-.879-2.025-.181 0-.328-.439-.328-.976 0-.537-.18-1.088-.4-1.224-.22-.136-.4-.687-.4-1.224 0-.537-.18-.976-.4-.976-.22 0-.4-.349-.4-.776 0-.427-.18-.888-.4-1.024-.22-.136-.4-.687-.4-1.224 0-.537-.18-.976-.4-.976-.22 0-.4-.54-.4-1.2 0-.66-.18-1.2-.4-1.2-.22 0-.4-.349-.4-.776 0-.427-.18-.888-.4-1.024-.22-.136-.4-.687-.4-1.224 0-.537-.18-.976-.4-.976-.22 0-.4-.45-.4-1s-.18-1-.4-1c-.22 0-.4-.45-.4-1s-.18-1-.4-1c-.22 0-.4-.45-.4-1s-.18-1-.4-1c-.22 0-.4-.36-.4-.8 0-.44-.18-.8-.4-.8-.22 0-.4-.439-.4-.976 0-.537-.18-1.088-.4-1.224-.22-.136-.4-.597-.4-1.024 0-.427-.18-.776-.4-.776-.22 0-.4-.45-.4-1s-.18-1-.4-1c-.22 0-.4-.45-.4-1s-.18-1-.4-1c-.22 0-.4-.282-.4-.626 0-.344-.45-1.609-1-2.811-.55-1.203-1-2.451-1-2.775 0-.323-.18-.588-.4-.588-.22 0-.4-.36-.4-.8 0-.44-.18-.8-.4-.8-.22 0-.399-.315-.397-.7.004-.776 1.664-1.7 3.053-1.7.493 0 1.008-.18 1.144-.4.136-.22.777-.4 1.424-.4.647 0 1.176-.18 1.176-.4 0-.22.54-.4 1.2-.4.66 0 1.2-.18 1.2-.4 0-.22.72-.4 1.6-.4.88 0 1.6-.18 1.6-.4 0-.22.72-.4 1.6-.4.88 0 1.6-.18 1.6-.4 0-.22.81-.4 1.8-.4s1.8-.18 1.8-.4c0-.22.72-.4 1.6-.4.88 0 1.6-.18 1.6-.4 0-.22.9-.4 2-.4s2-.18 2-.4c0-.22.81-.4 1.8-.4s1.8-.18 1.8-.4c0-.222 1.067-.4 2.4-.4s2.4-.178 2.4-.4c0-.22.979-.4 2.176-.4s2.288-.18 2.424-.4c.136-.22 1.497-.4 3.024-.4 1.584 0 2.776-.172 2.776-.4 0-.233 1.325-.4 3.176-.4 1.747 0 3.288-.18 3.424-.4.14-.227 2.137-.4 4.624-.4 2.651 0 4.376-.158 4.376-.4 0-.251 2.525-.4 6.776-.4 4.087 0 6.875-.159 7.024-.4.136-.22.777-.4 1.424-.4h1.176V175m-170.8-64.2c0 .22.81.4 1.8.4s1.8.18 1.8.4c0 .22.72.4 1.6.4.88 0 1.6.18 1.6.4 0 .22.54.4 1.2.4.66 0 1.2.18 1.2.4 0 .22.36.4.8.4.44 0 .8.18.8.4 0 .22.54.4 1.2.4.66 0 1.2.18 1.2.4 0 .22.36.4.8.4.44 0 .8.18.8.4 0 .22.45.4 1 .4s1 .18 1 .4c0 .22.349.4.776.4.427 0 .888.18 1.024.4.136.22.687.4 1.224.4.537 0 .976.18.976.4 0 .22.36.4.8.4.44 0 .8.18.8.4 0 .22.349.4.776.4.427 0 .888.18 1.024.4.136.22.687.4 1.224.4.537 0 .976.18.976.4 0 .22.36.4.8.4.44 0 .8.18.8.4 0 .22.265.4.59.4.324 0 1.719.517 3.1 1.149 1.38.632 3.5 1.487 4.71 1.9 1.21.413 2.26.886 2.333 1.051.074.165.468.3.877.3.408 0 .854.18.99.4.136.22.687.4 1.224.4.537 0 .976.18.976.4 0 .22.36.4.8.4.44 0 .8.18.8.4 0 .22.54.4 1.2.4.66 0 1.2.18 1.2.4 0 .22.349.4.776.4.427 0 .888.18 1.024.4.136.22.597.4 1.024.4.427 0 .776.18.776.4 0 .22.439.4.976.4.537 0 1.088.18 1.224.4.136.22.597.4 1.024.4.427 0 .776.18.776.4 0 .22.54.4 1.2.4.66 0 1.2.18 1.2.4 0 .22.36.4.8.4.44 0 .8.18.8.4 0 .22.54.4 1.2.4.66 0 1.2.18 1.2.4 0 .22.36.4.8.4.44 0 .8.18.8.4 0 .22.439.4.976.4.537 0 1.088.18 1.224.4.136.22.687.4 1.224.4.537 0 .976.18.976.4 0 .22.349.4.776.4.427 0 .888.18 1.024.4.136.22.687.4 1.224.4.537 0 .976.18.976.4 0 .22.525.4 1.167.4.641 0 1.226.143 1.3.318.073.175 1.753.821 3.733 1.436 4.64 1.442 5.4 1.824 5.4 2.714 0 .402.18.732.4.732.22 0 .4.439.4.976 0 .537.18 1.088.4 1.224.22.136.4.597.4 1.024 0 .427.18.776.4.776.22 0 .4.54.4 1.2 0 .66.18 1.2.4 1.2.22 0 .4.439.4.976 0 .537.18 1.088.4 1.224.22.136.4.597.4 1.024 0 .427.18.776.4.776.22 0 .4.362.4.805 0 .443.18 1.163.4 1.6l.8 1.59c.22.437.4 1.067.4 1.4 0 .333.18.605.4.605.22 0 .4.54.4 1.2 0 .66.18 1.2.4 1.2.22 0 .4.45.4 1s.18 1 .4 1c.22 0 .4.45.4 1s.18 1 .4 1c.22 0 .4.54.4 1.2 0 .66.18 1.2.4 1.2.22 0 .4.36.4.8 0 .44.18.8.4.8.22 0 .4.54.4 1.2 0 .66.18 1.2.4 1.2.22 0 .4.45.4 1s.18 1 .4 1c.22 0 .4.36.4.8 0 .44.18.8.4.8.22 0 .4.54.4 1.2 0 .66.18 1.2.4 1.2.22 0 .4.468.4 1.04 0 .571.255 1.606.567 2.3.312.693.954 2.43 1.426 3.86.872 2.639 1.417 4.042 2.054 5.295.194.382.353 1.057.353 1.5 0 .443.18.805.4.805.22 0 .4.54.4 1.2 0 .66.18 1.2.4 1.2.22 0 .4.54.4 1.2 0 .66.18 1.2.4 1.2.22 0 .4.54.4 1.2 0 .66.18 1.2.4 1.2.22 0 .4.439.4.976 0 .537.18 1.088.4 1.224.22.136.4.687.4 1.224 0 .537.18.976.4.976.22 0 .4.45.4 1s.18 1 .4 1c.22 0 .4.45.4 1s.18 1 .4 1c.22 0 .4.54.4 1.2 0 .66.18 1.2.4 1.2.22 0 .4.54.4 1.2 0 .66.18 1.2.4 1.2.22 0 .4.54.4 1.2 0 .66.18 1.2.4 1.2.22 0 .4.54.4 1.2 0 .66.18 1.2.4 1.2.22 0 .4.45.4 1s.18 1 .4 1c.22 0 .4.45.4 1s.18 1 .4 1c.22 0 .4.45.4 1s.18 1 .4 1c.22 0 .4.72.4 1.6 0 1.267-.148 1.6-.712 1.6-.391 0-.971.36-1.288.8-.317.44-.857.8-1.2.8-.343 0-.883.36-1.2.8-.317.44-.857.8-1.2.8-.343 0-.883.36-1.2.8-.317.44-.857.8-1.2.8-.343 0-.883.36-1.2.8-.317.44-.831.8-1.141.8-.311 0-.858.315-1.216.7-1.668 1.793-3.643 1.847-3.643.1 0-.251-.225-.707-.5-1.011a314.6 314.6 0 01-2.5-2.87c-3.462-4.007-17.466-17.592-19.8-19.207-.55-.381-1.554-1.237-2.231-1.902-1.753-1.723-4.312-3.799-4.691-3.805-.177-.003-1.382-1.085-2.678-2.405-1.296-1.32-2.47-2.4-2.609-2.4-.14 0-.945-.72-1.791-1.6-.846-.88-1.731-1.6-1.969-1.6-.237 0-.431-.18-.431-.4 0-.22-.18-.4-.4-.4-.219 0-1.141-.72-2.048-1.6-.907-.88-1.815-1.6-2.018-1.6-.204 0-.786-.405-1.293-.9-1.697-1.654-3.043-2.7-3.475-2.7-.236 0-1.12-.72-1.966-1.6-.846-.88-1.656-1.6-1.8-1.6-.144 0-.954-.72-1.8-1.6-.846-.88-1.731-1.6-1.969-1.6-.237 0-.431-.18-.431-.4 0-.22-.18-.4-.4-.4-.219 0-1.141-.72-2.048-1.6-.907-.88-1.811-1.6-2.011-1.6-.199 0-1.172-.81-2.162-1.8s-1.948-1.8-2.128-1.8c-.181 0-.761-.371-1.29-.824l-1.864-1.6c-.497-.427-.991-.776-1.098-.776-.107 0-1.114-.9-2.238-2-1.123-1.1-2.218-2-2.433-2-.215 0-1.082-.72-1.928-1.6-.846-.88-1.71-1.6-1.922-1.6-.212 0-1.59-1.17-3.063-2.6-1.473-1.43-2.799-2.602-2.946-2.604-.148-.002-2.006-1.667-4.128-3.7-4.18-4.003-5.421-5.096-5.785-5.096-.129 0-.739-.54-1.356-1.2-.617-.66-1.409-1.2-1.76-1.2-.352 0-.64-.18-.64-.4 0-.239-1.533-.4-3.8-.4s-3.8.161-3.8.4c0 .22-.439.4-.976.4-.537 0-1.088.18-1.224.4-.136.22-.597.4-1.024.4-.427 0-.776.18-.776.4 0 .22-.349.4-.776.4-.427 0-.888.18-1.024.4-.136.22-.687.4-1.224.4-.537 0-.976.18-.976.4 0 .22-.36.4-.8.4-.44 0-.8.18-.8.4 0 .22-.45.4-1 .4s-1 .18-1 .4c0 .22-.36.4-.8.4-.44 0-.8.18-.8.4 0 .22-.54.4-1.2.4-.66 0-1.2.18-1.2.4 0 .22-.72.4-1.6.4-.88 0-1.6.18-1.6.4 0 .222-1.067.4-2.4.4s-2.4.178-2.4.4c0 .22-.458.4-1.017.4-1.152 0-4.474 2.878-5.406 4.683-.317.614-1.072 1.594-1.677 2.177-.605.584-1.1 1.238-1.1 1.454 0 .217-.493.717-1.097 1.113-.603.395-1.941 1.585-2.974 2.646-1.032 1.06-2.119 1.927-2.415 1.927-.295 0-.797.36-1.114.8-.317.44-.897.8-1.288.8-.392 0-.712.144-.712.321 0 .698-4.421 1.405-8.8 1.407-4.586.002-9.2-.684-9.2-1.368 0-.198-.295-.36-.656-.36-1.247 0-1.718-1.279-1.731-4.7-.008-1.942.152-3.3.387-3.3.22 0 .4-.54.4-1.2 0-.66.18-1.2.4-1.2.22 0 .4-.54.4-1.2 0-.66.18-1.2.4-1.2.22 0 .4-.36.4-.8 0-.44.135-.801.3-.801.165-.001.75-.991 1.3-2.199.55-1.208 1.135-2.198 1.3-2.199.165 0 .3-.279.3-.618 0-.339.36-1.003.8-1.475.44-.472.8-1.095.8-1.383 0-.289.18-.525.4-.525.22 0 .4-.236.4-.525 0-.288.36-.911.8-1.383.44-.472.8-1.019.8-1.216 0-.197.54-.922 1.2-1.613.66-.691 1.2-1.407 1.2-1.592 0-.185 1.075-1.492 2.389-2.904 1.314-1.412 2.394-2.692 2.4-2.844.017-.432 4.434-4.789 6.174-6.09.858-.643 3.06-2.668 4.893-4.5 1.833-1.833 3.474-3.333 3.647-3.333.173 0 1.379-.99 2.679-2.2 1.3-1.21 2.561-2.2 2.803-2.2.241 0 .698-.36 1.015-.8.317-.44.857-.8 1.2-.8.343 0 .883-.36 1.2-.8.317-.44.857-.8 1.2-.8.343 0 .883-.36 1.2-.8.317-.44.897-.8 1.288-.8.392 0 .712-.18.712-.4 0-.22.345-.4.767-.4.421 0 .826-.135.9-.3.073-.165 1.033-.725 2.133-1.244s2.313-1.104 2.695-1.3c.382-.196.967-.356 1.3-.356.333 0 .605-.18.605-.4 0-.22.72-.4 1.6-.4.88 0 1.6-.18 1.6-.4 0-.251 2.533-.4 6.8-.4 4.267 0 6.8.149 6.8.4m-66 14.728c0 .18-.405.685-.9 1.121-1.334 1.176-4.3 4.682-4.3 5.083 0 .191-.54.851-1.2 1.468-.66.617-1.2 1.274-1.201 1.46 0 .187-.54.97-1.199 1.74s-1.199 1.585-1.199 1.812c-.001.226-.361.671-.801.988-.44.317-.8.897-.8 1.288 0 .392-.18.712-.4.712-.22 0-.4.27-.4.6 0 .33-.18.6-.4.6-.22 0-.4.27-.4.6 0 .33-.18.6-.4.6-.22 0-.4.27-.4.6 0 .33-.18.6-.4.6-.22 0-.4.36-.4.8 0 .44-.135.801-.3.803-.359.004-1.3 1.941-1.3 2.677 0 .286-.18.52-.4.52-.22 0-.4.36-.4.8 0 .44-.18.8-.4.8-.22 0-.4.242-.4.539 0 .296-.294 1.127-.653 1.846-.7 1.405-1.169 2.984-1.874 6.315-.245 1.155-.586 2.1-.759 2.1-.173 0-.314 1.339-.314 2.976s-.18 3.088-.4 3.224c-.22.136-.4 1.407-.4 2.824 0 1.451.175 2.576.4 2.576.22 0 .4.9.4 2s.18 2 .4 2c.22 0 .402.405.404.9.005 1.138 1.794 5.016 2.706 5.868.38.354.882.989 1.117 1.411.234.422.769.96 1.188 1.194.418.235 1.243.922 1.833 1.527.59.605 1.361 1.1 1.712 1.1.352 0 .64.18.64.4 0 .22.249.4.554.4.305 0 1.07.269 1.7.598.63.328 1.641.598 2.246.6.605.001 1.1.182 1.1.402 0 .22.529.4 1.176.4.647 0 1.288.18 1.424.4.136.22.867.4 1.624.4.757 0 1.376.18 1.376.4 0 .253 2.8.4 7.6.4s7.6-.147 7.6-.4c0-.22.72-.4 1.6-.4.88 0 1.6-.18 1.6-.4 0-.22.72-.4 1.6-.4.88 0 1.6-.16 1.6-.355 0-.196.602-.469 1.339-.607 2.232-.419 8.165-3.673 8.594-4.715.074-.178.397-.323.718-.323.738 0 10.549-9.859 10.549-10.601 0-.355.674-.637 1.9-.795 1.045-.135 2.213-.416 2.595-.624.382-.209 1.237-.38 1.9-.38.663 0 1.205-.147 1.205-.328 0-.18.9-.572 2-.872 1.1-.3 2-.692 2-.872 0-.181.272-.328.605-.328.333 0 .963-.18 1.4-.4l1.59-.8c.437-.22 1.067-.4 1.4-.4.333 0 .605-.18.605-.4 0-.864 1.335-.326 2.731 1.1.808.825 2.104 1.974 2.88 2.552.776.579 2.352 1.974 3.502 3.1 1.15 1.127 2.246 2.048 2.435 2.048.19 0 1.653 1.26 3.252 2.8 1.599 1.54 3.077 2.8 3.285 2.8.208 0 1.069.72 1.915 1.6.846.88 1.643 1.6 1.772 1.6.13 0 .778.518 1.44 1.152.663.633 1.967 1.668 2.897 2.299.93.632 2.168 1.643 2.751 2.249.584.605 1.258 1.1 1.498 1.1.241 0 1.357.9 2.481 2 1.123 1.1 2.211 2 2.418 2 .206 0 1.06.72 1.897 1.6.837.88 1.64 1.6 1.784 1.6.143 0 1.003.72 1.91 1.6.907.88 1.813 1.6 2.014 1.6.2 0 .979.585 1.73 1.3 1.815 1.729 2.281 2.097 3.433 2.712.536.287 1.452 1.031 2.035 1.655.584.623 1.258 1.133 1.499 1.133.241 0 1.306.9 2.366 2s2.05 2 2.199 2c.149 0 1.368 1.08 2.708 2.4 1.341 1.32 2.616 2.4 2.834 2.4.218 0 1.077.708 1.909 1.573.831.866 2.212 2.033 3.068 2.594 1.862 1.219 4.587 3.7 12.56 11.433l6.888 6.679c1.211 1.171 1.706 1.794 2.286 2.878.266.498 1.191 1.633 2.054 2.523.863.889 1.569 1.865 1.569 2.168 0 .304.18.552.4.552.22 0 .4.236.4.525 0 .288.36.911.8 1.383.44.472.8 1.136.8 1.475 0 .339.18.617.4.617.22 0 .4.36.4.8 0 .44.18.8.4.8.226 0 .4 1.133.4 2.6 0 1.43-.15 2.6-.332 2.6-.183 0-.588.495-.9 1.1-.715 1.388-3.919 4.5-4.632 4.5-.295 0-.536.18-.536.4 0 .22-.439.4-.976.4-.537 0-1.088.18-1.224.4-.655 1.061-2.738.224-4.985-2.002a41.332 41.332 0 00-2.815-2.512c-2.162-1.714-5.428-4.671-7.72-6.99-6.46-6.533-14.443-14.48-15.768-15.696-.839-.77-2.152-2.21-2.917-3.2-1.685-2.179-6.205-7.008-9.149-9.775-1.922-1.806-6.189-6.081-9.108-9.125-.58-.605-1.299-1.1-1.597-1.1-.297 0-.541-.18-.541-.4 0-.22-.36-.4-.8-.4-.44 0-.8-.18-.8-.4 0-.233-1.333-.4-3.2-.4-1.867 0-3.2.167-3.2.4 0 .22-.36.4-.8.4-.44 0-.8.18-.8.4 0 .22-.193.4-.429.4-1.756 0-3.171 3.295-3.171 7.388 0 4.712.573 5.67 7.339 12.261 7.588 7.391 9.974 9.803 12.461 12.592 3.446 3.866 23.42 23.845 24.551 24.559 1.741 1.098 5.059 4.53 4.545 4.701-.273.091-.496.435-.496.764 0 .73-2.91 3.589-4.007 3.937-.436.139-.793.42-.793.625 0 .205-.439.373-.976.373-.537 0-1.088.18-1.224.4-.136.22-.597.4-1.024.4-.427 0-.776.18-.776.4 0 .231-1.267.4-3 .4s-3-.169-3-.4c0-.22-.284-.4-.631-.4-.348 0-1.293-.676-2.1-1.502-.808-.826-2.099-2-2.869-2.608-2.344-1.853-6.288-5.512-9.731-9.03-4.307-4.4-13.343-13.389-15.755-15.672-1.053-.996-2.357-2.436-2.898-3.2-2.67-3.768-9.154-10.14-11.555-11.357-3.095-1.569-10.854-.897-10.862.94 0 .126-.54.859-1.199 1.629-1.726 2.017-1.646 10.379.1 10.397.165.002.3.224.3.493 0 .27 1.665 2.144 3.7 4.166 2.035 2.022 4.6 4.719 5.7 5.994 1.1 1.274 4.97 5.337 8.6 9.029 16.301 16.576 17.274 17.521 18.032 17.521.631 0 2.368 1.893 2.368 2.582 0 .34-.18.618-.4.618-.22 0-.4.274-.4.609 0 .742-3.794 4.574-5.306 5.359-.602.312-1.094.717-1.094.9 0 .182-.45.332-1 .332s-1 .18-1 .4c0 .796-4.581.463-5.508-.4-.472-.44-.968-.8-1.101-.8-.134 0-1.086-.855-2.117-1.9s-2.504-2.401-3.274-3.012c-2.172-1.726-5.434-4.679-7.72-6.992-10.514-10.634-14.391-14.499-15.742-15.696-.87-.77-2.015-2.022-2.545-2.781-3.996-5.73-12.252-13.219-14.573-13.219-.561 0-1.02-.18-1.02-.4 0-.22-.81-.4-1.8-.4s-1.8.18-1.8.4c0 .22-.444.4-.986.4-1.585 0-3.771 1.255-4.311 2.474-.274.619-.634 1.126-.801 1.126-.166 0-.302.36-.302.8 0 .44-.18.8-.4.8-.233 0-.4 1.333-.4 3.2 0 1.867.167 3.2.4 3.2.22 0 .4.36.4.8 0 .44.18.8.4.8.22 0 .4.205.4.456s1.665 2.123 3.7 4.16a281.814 281.814 0 016.9 7.198c1.76 1.921 5.63 5.968 8.6 8.993 2.97 3.026 6.93 7.098 8.8 9.049 1.87 1.952 4.081 4.133 4.914 4.847l1.514 1.297h-2.814c-1.609 0-2.814-.171-2.814-.4 0-.22-.72-.4-1.6-.4-.88 0-1.6-.18-1.6-.4 0-.22-.54-.4-1.2-.4-.66 0-1.2-.18-1.2-.4 0-.22-.45-.4-1-.4s-1-.18-1-.4c0-.22-.349-.4-.776-.4-.427 0-.888-.18-1.024-.4-.136-.22-.687-.4-1.224-.4-.537 0-.976-.18-.976-.4 0-.22-.36-.4-.8-.4-.44 0-.8-.18-.8-.4 0-.22-.236-.4-.525-.4-.288 0-.911-.36-1.383-.8-.472-.44-1.096-.8-1.387-.8-.291 0-.788-.36-1.105-.8-.317-.44-.825-.8-1.128-.8-.303 0-1.055-.54-1.672-1.2-.617-.66-1.291-1.2-1.498-1.2-.208 0-.704-.36-1.102-.8-.398-.44-.884-.8-1.079-.8-.195 0-.752-.375-1.238-.834-.486-.459-1.423-1.115-2.083-1.459-.66-.344-1.491-.959-1.847-1.366-.356-.408-.824-.741-1.041-.741-.216 0-.958-.54-1.649-1.2-.691-.66-1.402-1.2-1.581-1.2-.179 0-.966-.585-1.748-1.3a47.517 47.517 0 00-2.741-2.3c-.726-.55-1.548-1.225-1.828-1.5-.279-.275-.661-.5-.848-.5-.187 0-.6-.36-.917-.8-.317-.44-.807-.8-1.088-.8-.282 0-.512-.18-.512-.4 0-.22-.182-.4-.404-.4-.222 0-.968-.54-1.659-1.2-.691-.66-1.417-1.2-1.615-1.2-.197 0-.792-.405-1.321-.9-1.628-1.522-2.15-1.9-2.624-1.9-.251 0-.96-.54-1.577-1.2-.617-.66-1.257-1.2-1.423-1.2-.166 0-1.008-.72-1.87-1.6-.863-.88-1.753-1.6-1.977-1.6-.225 0-.913-.54-1.53-1.2-.617-.66-1.297-1.2-1.512-1.2-.215 0-1.133-.72-2.04-1.6-.907-.88-1.846-1.6-2.088-1.6-.241 0-.916-.502-1.5-1.115-.583-.614-1.69-1.553-2.46-2.087-.77-.535-1.601-1.158-1.847-1.385-1.168-1.08-2.579-2.213-2.756-2.213-.108 0-.938-.72-1.845-1.6-.907-.88-1.821-1.6-2.032-1.6-.21 0-1.074-.72-1.92-1.6-.846-.88-1.7-1.6-1.898-1.6-.198 0-1.324-.9-2.502-2-1.178-1.1-2.34-2-2.582-2-.243 0-.706-.377-1.03-.838-.323-.462-1.386-1.393-2.362-2.07-1.933-1.343-20.858-20.183-23.435-23.331-1.631-1.992-5.623-6.054-7.531-7.662-1.067-.9-1.208-4.036-.199-4.432.186-.074.339-.749.339-1.5 0-.752.18-1.367.4-1.367.22 0 .4-.54.4-1.2 0-.66.18-1.2.4-1.2.22 0 .4-.529.4-1.176 0-.647.18-1.288.4-1.424.22-.136.4-.867.4-1.624 0-.757.18-1.376.4-1.376.22 0 .4-.54.4-1.2 0-.66.18-1.2.4-1.2.22 0 .4-.72.4-1.6 0-.88.18-1.6.4-1.6.22 0 .4-.439.4-.976 0-.537.18-1.088.4-1.224.22-.136.4-.676.4-1.2 0-.524.18-1.064.4-1.2.22-.136.4-.867.4-1.624 0-.757.18-1.376.4-1.376.22 0 .4-.529.4-1.176 0-.647.18-1.288.4-1.424.22-.136.4-.867.4-1.624 0-.757.18-1.376.4-1.376.22 0 .4-.72.4-1.6 0-.88.18-1.6.4-1.6.22 0 .4-.63.4-1.4 0-.77.18-1.4.4-1.4.22 0 .4-.529.4-1.176 0-.647.18-1.288.4-1.424.22-.136.4-.867.4-1.624 0-.757.18-1.376.4-1.376.22 0 .4-.72.4-1.6 0-.88.18-1.6.4-1.6.22 0 .4-.72.4-1.6 0-.88.18-1.6.4-1.6.22 0 .4-.72.4-1.6 0-.88.161-1.6.358-1.6.197 0 .463-.675.592-1.5l.721-4.6c.268-1.705.632-3.1.808-3.1.177 0 .321-.72.321-1.6 0-.88.18-1.6.4-1.6.22 0 .4-.81.4-1.8s.18-1.8.4-1.8c.22 0 .4-.709.4-1.576 0-.867.18-1.688.4-1.824.22-.136.4-1.047.4-2.024 0-.977.18-1.776.4-1.776.22 0 .4-.9.4-2s.18-2 .4-2c.22 0 .4-.818.4-1.817 0-3.167-1.828-2.951 25.1-2.968 13.255-.008 24.1.133 24.1.313" fill="#04d46c" fill-rule="evenodd"/></svg>